<svg width="56" height="56" viewBox="0 0 56 56" fill="none" xmlns="http://www.w3.org/2000/svg">
<circle cx="28" cy="28" r="27.5" fill="#DFDFF0" stroke="#D5D5EB"/>
<g clip-path="url(#clip0_249_352)">
<path d="M25.6142 21.9635L24.562 22.3675L23.504 21.5307L22.3728 22.4041L22.9991 23.6314L22.3844 24.5125L20.9834 24.4759L20.5825 25.8418L21.787 26.4804C21.8506 26.7286 21.8814 27.3134 21.8082 27.5808L20.7097 28.2964L21.178 29.643L22.5366 29.4622L23.2092 30.2759L22.6812 31.5725L23.7526 32.4113L24.7605 31.6302C24.9802 31.6052 25.3888 31.7726 25.6007 31.913C24.5408 32.8133 24.3635 34.0753 25.1864 35.116C25.5892 35.6277 26.2078 36.1741 26.9459 36.0529C27.9846 35.8816 28.8537 35.2257 29.6014 34.487L34.7584 29.3814L35.5004 29.3487C34.2593 33.8694 30.6614 36.9993 26.5296 38.9981C24.2575 37.94 22.2264 36.553 20.5343 34.7216C18.2122 32.2612 16.9962 29.1429 17 25.761L17.0096 18.9625C20.3224 18.1296 23.4115 17.1869 26.5508 16C29.6496 17.1735 32.6713 18.1892 35.9378 18.9529L35.9629 20.8497L35.2363 20.9113L35.1901 19.5666C32.232 18.8336 29.4203 17.8602 26.547 16.8195C23.612 17.8949 20.7502 18.7971 17.7651 19.5647L17.7766 25.7032C17.7265 28.6658 18.7171 31.3955 20.6114 33.6578C22.2418 35.57 24.2094 37.0301 26.5489 38.1363C26.599 37.79 26.6106 37.5072 26.599 37.1917C24.7914 36.2953 23.1899 35.2064 21.8082 33.7405C19.7905 31.6225 18.6034 28.9505 18.5995 26.0033L18.5918 20.2399L26.5566 17.7333L34.3499 20.2322C34.3903 20.5496 34.3903 20.892 34.3556 21.2056C32.972 21.7904 32.0161 22.8196 31.6538 24.2739L30.8695 24.3759L30.2432 23.5083L30.8676 22.3329L29.6862 21.4403L28.6668 22.254L27.657 21.9674L27.314 20.6227L25.9149 20.6169L25.6142 21.9635Z" fill="black"/>
<path d="M38.524 26.6535C37.6895 27.9712 36.2134 28.5464 34.6909 28.2905L28.4451 34.8389C27.9017 35.4083 26.9304 35.5295 26.2868 35.1044C26.015 34.9235 25.7491 34.5734 25.566 34.3272C25.0785 33.6731 25.25 32.9344 25.8146 32.4073L32.5923 26.0917C32.3707 24.7778 32.7176 23.512 33.7235 22.681C34.7295 21.8499 36.0708 21.6095 37.3003 22.2712L35.1823 24.1853C35.0397 24.3142 35.0802 24.5605 35.1958 24.6836L36.3348 25.8897C36.4408 26.0013 36.7838 26.0186 36.8975 25.9109L38.8304 24.0757C39.1329 24.9375 39.0308 25.8551 38.524 26.6535ZM31.9853 28.9619L33.3034 27.7L33.2533 27.5037C33.2417 27.4633 33.1011 27.4941 33.0606 27.5307L31.8985 28.633C31.8272 28.7003 31.7694 28.7811 31.7386 28.8273C31.7155 28.8619 31.9564 28.9889 31.9872 28.96L31.9853 28.9619ZM27.1752 32.5881C26.7454 32.7497 26.6587 33.2249 26.8649 33.5904C27.0326 33.8886 27.4565 34.0098 27.8034 33.8443C28.1137 33.6962 28.2601 33.2749 28.1291 32.9921C27.9537 32.6151 27.5606 32.4439 27.1752 32.5901V32.5881Z" fill="black"/>
<path d="M26.5916 30.1681C26.7516 30.1816 26.5145 30.6375 26.3661 30.624C25.8921 30.5837 25.5394 30.5817 25.048 30.5817L24.996 29.5275C23.8397 29.0312 23.3097 27.623 23.408 26.4881C23.4947 25.4858 24.0709 24.5412 25.0326 23.968C26.1137 23.3235 27.4415 23.387 28.5014 24.0584C29.5016 24.6913 30.1761 25.9148 30.0354 27.1363L28.3202 28.8138L25.3544 28.8254L25.364 30.07L26.5897 30.1701L26.5916 30.1681Z" fill="black"/>
</g>
<defs>
<clipPath id="clip0_249_352">
<rect width="22" height="23" fill="white" transform="translate(17 16)"/>
</clipPath>
</defs>
</svg>
