<svg width="56" height="56" viewBox="0 0 56 56" fill="none" xmlns="http://www.w3.org/2000/svg">
<circle cx="28" cy="28" r="27.5" fill="#DFDFF0" stroke="#D5D5EB"/>
<g clip-path="url(#clip0_249_327)">
<path d="M38.2608 24.8206C38.2085 25.3455 38.301 25.8704 38.1622 26.3171L35.6242 34.4906L33.7519 35.2258L33.7338 25.7001L25.8763 25.68C25.7094 25.9966 25.4258 26.1128 25.1101 26.0326L22.737 25.9224C22.6686 25.7462 22.6324 25.4677 22.6223 25.0991L15.7 25.071L15.6679 35.2639L13.8317 34.5467L11.6054 27.1565C11.3902 26.4433 11.3802 25.7201 11.4968 25.0791L11.2394 25.3755C11.1046 25.067 11.0061 24.7545 11.0061 24.444L10.998 19.3756L13.5964 19.3456L13.6125 15.998C15.332 16.8234 15.8207 18.8648 15.7021 20.6137H18.0953C18.051 18.8788 18.4653 16.9035 20.1869 16.0061L20.215 19.3756L22.5781 19.3876L23.0889 19.1332H27.7467C27.8231 18.993 28.0101 18.6765 28.175 18.6745L32.4326 18.6665L32.6216 17.5065L32.7564 18.6765L38.0396 18.6524L38.1321 20.5956L44.99 20.6037L45.0001 24.8066L38.2608 24.8186V24.8206ZM36.4367 21.7375L36.4086 19.3175L28.6235 19.3396L28.6074 21.7375H36.4367ZM27.2016 21.7616L27.1654 19.7082L23.3121 19.6901V21.7576L27.2016 21.7616ZM21.9868 21.0484H14.5698L13.6065 19.9486L11.5652 19.9446L11.5974 21.5652L22.3388 21.5532C22.4453 21.5452 22.5419 21.1846 22.4494 21.1285C22.377 21.0845 22.1718 21.0504 21.9868 21.0504V21.0484ZM44.451 21.5672L44.4631 21.0744L38.1321 21.0704L38.1421 21.5612L44.451 21.5672ZM24.9512 23.214L24.732 23.9872L23.469 23.9812L23.463 22.8874C23.463 22.8233 23.3966 22.7071 23.3684 22.6651C23.3403 22.623 23.1412 22.7392 23.1392 22.7933L23.1231 24.0213L21.844 24.0373L21.7575 23.3923H21.4941C21.4337 23.3923 21.5263 24.0133 21.3091 24.0493H20.1205L19.9817 23.1579C19.6217 23.3482 19.7585 23.6347 19.7444 24.0453L18.4533 24.0754C18.3547 23.7408 18.3447 23.6667 18.1818 23.2661L17.9605 24.0894L16.7619 24.0534L16.7519 22.8634C16.7519 22.7813 16.5689 22.617 16.5186 22.6671C16.2692 22.9135 16.5367 23.7028 16.3416 24.1315C16.2973 24.1856 15.9977 24.3418 16.056 24.3799C16.1143 24.418 16.3034 24.5181 16.3758 24.5161L22.5821 24.4821L37.1708 24.3058L44.1333 24.2437C44.2378 24.2437 44.4289 24.1535 44.4832 24.0854C44.5254 24.0353 44.3987 23.841 44.3263 23.839L42.9688 23.8049L42.6993 23.1559L42.5043 23.867L41.2895 23.827C41.2694 23.2881 41.374 22.9696 41.0985 22.4768L40.9456 23.855L39.7611 23.813C39.7269 23.5024 39.7349 23.2841 39.4976 23.1358L39.2945 23.8751L38.1019 23.857L37.9471 23.1238C37.6856 23.3302 37.7138 23.4884 37.7178 23.847L36.491 23.8691C36.4347 23.4183 36.4427 23.1699 36.2557 22.7031C36.119 23.1519 36.1109 23.4203 36.0767 23.8791L34.9626 23.8971L34.7554 23.206C34.502 23.3081 34.496 23.4864 34.4879 23.8791L33.2732 23.8751L33.1003 23.1118C32.865 23.3542 32.9052 23.4764 32.8891 23.8891L31.6804 23.9251L31.4914 23.252C31.2661 23.3722 31.2782 23.6026 31.2561 23.9051L30.0232 23.9171L29.973 22.7632C29.9689 22.6811 29.6894 22.6971 29.6874 22.7813L29.6713 23.9271L28.4405 23.9211L28.2152 23.244L27.982 23.9251L26.7894 23.9292C26.731 23.5405 26.8879 23.2961 26.5098 23.1078L26.3912 23.9592L25.1905 23.9712C25.1081 23.6507 25.1081 23.6226 24.9432 23.204L24.9512 23.214ZM15.517 24.5762L15.509 24.0634L11.6275 24.0894C11.4988 24.0894 11.5109 24.5882 11.6416 24.5882L15.517 24.5782V24.5762ZM37.4382 26.0487C37.5247 26.0487 37.6916 25.7842 37.6273 25.7622C37.5851 25.7482 37.4242 25.684 37.3679 25.684L35.8032 25.6881C35.7107 25.6881 35.5337 25.8243 35.5558 25.9004C35.5739 25.9625 35.7328 26.0587 35.8092 26.0587L37.4382 26.0507V26.0487ZM37.392 26.7057C37.2673 26.5835 36.7645 26.5976 36.7122 26.7458C36.6338 26.9622 36.9174 27.1625 37.1326 27.1745C37.3216 27.1845 37.5368 26.85 37.392 26.7057ZM14.8433 34.146C14.9982 32.7217 14.6583 32.287 14.7588 31.4275C14.8312 30.8145 14.8111 30.1915 14.6683 29.5564C14.3787 30.3397 14.6201 31.093 14.5778 31.8663L14.4692 33.8596C14.4612 33.9918 14.791 34.2182 14.8433 34.146ZM34.7997 31.7521C34.4175 32.5294 34.6649 33.2906 34.5985 34.0839L34.8399 34.0539C35.0008 34.0338 34.9927 31.8683 34.7997 31.7541V31.7521Z" fill="black"/>
<path d="M32.6473 30.8686L32.6534 31.3314L31.6579 31.3574C31.4145 34.9614 28.5929 37.756 24.9367 37.9523L24.9126 38.8798C24.9085 38.994 24.4963 39.0501 24.4902 38.9419L24.4259 37.9403C20.7938 37.776 17.9179 34.9714 17.6625 31.3574L16.7836 31.3294C16.677 31.3234 16.673 30.9067 16.7836 30.8947L17.6383 30.8005C17.7389 28.7551 18.6238 26.9862 20.1925 25.666L21.6385 26.0126C19.8626 27.1224 18.7706 28.8332 18.7364 30.8125L20.2206 30.8245C20.3252 28.5468 22.1694 26.7879 24.4158 26.6376C24.4661 26.4553 24.5465 26.253 24.635 26.2049C24.7517 26.1428 24.9407 26.4092 24.9729 26.5956C27.2274 26.8259 28.9569 28.5588 29.1178 30.8285L30.5678 30.8065C30.5457 28.8553 29.516 27.3468 27.9815 26.1468L29.6125 26.0927C30.8514 27.3929 31.6096 28.9755 31.6478 30.8105L32.6493 30.8606L32.6473 30.8686ZM24.452 29.5324L24.4158 27.6713C22.634 27.8777 21.4595 29.1638 21.2684 30.8386L23.179 30.8346C23.3439 30.1074 23.7722 29.7468 24.45 29.5304L24.452 29.5324ZM26.1132 30.8446L28.0318 30.8305C27.9131 29.1337 26.622 27.8596 24.9568 27.7154L24.9327 29.5444C25.5722 29.7227 26.0006 30.0973 26.1112 30.8446H26.1132ZM24.4078 35.4482C22.0708 35.2839 20.4861 33.6031 20.2387 31.3674H18.7485C18.9375 34.3764 21.4132 36.7583 24.4138 36.9046L24.4078 35.4482ZM24.4359 32.5193C23.726 32.3471 23.4082 31.9804 23.1709 31.3674H21.2905C21.4936 33.0021 22.6782 34.2322 24.4158 34.4025L24.4379 32.5193H24.4359ZM24.9729 34.4105C26.7387 34.146 27.8528 32.9541 28.0217 31.3574L26.1353 31.3634C25.9402 32.0285 25.5219 32.291 24.9467 32.5334L24.9729 34.4125V34.4105ZM24.999 36.9126C28.1163 36.6642 30.3526 34.2903 30.5638 31.3795L29.0836 31.3494C28.9066 33.5751 27.2294 35.2038 24.9669 35.4522C24.9327 35.931 24.9307 36.4338 24.999 36.9126Z" fill="black"/>
<path d="M32.3037 19.8283C32.4626 19.7441 32.7924 19.8824 32.9111 20.0606C33.0096 20.2089 32.8789 20.5254 32.6999 20.6596C32.5209 20.7939 32.2072 20.6797 32.1086 20.5234C31.9518 20.275 32.0161 19.9825 32.3057 19.8283H32.3037Z" fill="black"/>
<path d="M26.24 21.1706L25.2023 21.1927L25.1982 20.3132L26.3325 20.3192C26.2259 20.6618 26.2098 20.6358 26.24 21.1686V21.1706Z" fill="black"/>
</g>
<defs>
<clipPath id="clip0_249_327">
<rect width="34" height="23" fill="white" transform="translate(11 16)"/>
</clipPath>
</defs>
</svg>
