<svg width="56" height="56" viewBox="0 0 56 56" fill="none" xmlns="http://www.w3.org/2000/svg">
<circle cx="28" cy="28" r="27.5" fill="#DFDFF0" stroke="#D5D5EB"/>
<g clip-path="url(#clip0_249_362)">
<path d="M32.3446 23.971C31.8375 23.5059 30.2911 21.8141 29.7993 21.7663C29.7093 21.7567 29.5907 21.8754 29.4548 22.0074C26.5879 20.4802 23.0263 20.9319 20.6513 23.0944C18.2763 25.257 17.394 28.8033 18.7146 31.9094C19.4533 33.649 20.7145 34.9638 22.3986 35.9647C21.9776 36.5369 21.4168 36.4221 21.4092 37.1991C20.3681 36.5523 19.4246 35.8097 18.6438 34.8452C15.8898 31.4443 15.7482 26.5909 18.4428 23.1365C19.9337 21.2247 22.0063 19.9769 24.3756 19.6037L24.389 18.8592L23.5469 18.8439C23.0895 18.8362 22.68 18.6391 22.6742 18.1109L22.6608 16.8306C22.6589 16.3789 22.9823 16 23.455 16H28.2625C28.6854 16 29.0414 16.3043 29.0414 16.7445V18.0286C29.0414 18.5683 28.674 18.842 28.1572 18.8324C27.895 18.8267 27.6654 18.8343 27.3247 18.8496L27.3649 19.6247C30.3064 19.929 33.5254 22.5146 34.5321 25.4063L32.5513 25.4695L31.9867 24.524L32.3427 23.9729L32.3446 23.971ZM27.0951 17.8755L27.0874 17.043L23.9603 17.0143C23.9182 17.3492 23.922 17.6344 24.0062 17.8793L27.0951 17.8755Z" fill="black"/>
<path d="M35.0887 37.9245C34.9739 38.0776 34.683 38.0336 34.593 37.9207L32.6812 35.4959C33.8065 34.5677 34.3615 33.3506 34.2811 31.921C34.2084 30.6291 33.485 29.4215 32.3252 28.679L32.329 26.0781L37.1939 26.0667L37.2169 31.7564L39.701 31.8501L35.0887 37.9226V37.9245Z" fill="black"/>
<path d="M33.3342 31.5993C33.6576 33.0002 32.9017 34.269 31.717 34.9159C30.9209 35.3503 30.0712 35.4116 29.1602 35.2278L25.6675 38.1598C25.1278 38.6114 24.4561 38.931 23.7729 38.9942C22.7528 39.0861 22.0064 38.3416 21.9395 37.379L27.3115 33.0825C27.323 32.3801 27.3478 31.7103 27.6598 31.0787C28.4693 29.4405 30.4329 28.7152 32.1132 29.6874C31.4376 30.273 30.7908 30.763 30.0654 31.2625C29.897 31.3792 29.8358 31.6797 29.9506 31.827L30.8922 33.0366C31.0051 33.1858 31.2596 33.226 31.4357 33.1303L33.3342 31.5974V31.5993ZM28.0425 34.5657L27.6713 34.336L26.2302 35.536C26.1632 35.5915 26.2168 35.8211 26.2857 35.8671C26.4713 35.9915 27.6081 34.7628 28.0425 34.5657Z" fill="black"/>
<path d="M27.8601 29.2397C27.8563 29.3526 26.6678 31.3563 24.9569 30.5028C24.1569 30.1047 23.7225 29.1957 23.9751 28.2483C24.2603 27.1766 25.3511 26.6082 26.4611 26.813C26.6276 26.8436 26.9587 26.7652 27.0774 26.6656L30.949 23.4275L31.6073 24.0495L27.8946 28.0857L27.862 29.2397H27.8601ZM25.7932 28.1029C25.3932 28.1546 25.1291 28.5354 25.1961 28.8703C25.2688 29.2339 25.6344 29.4847 25.9942 29.4158C26.354 29.3469 26.6162 29.0119 26.53 28.6158C26.4707 28.3459 26.1281 28.0608 25.7932 28.1048V28.1029Z" fill="black"/>
<path d="M26.7529 38.6977C27.3347 37.9456 28.1289 37.2681 28.9059 36.7016C29.1317 36.537 29.6944 36.3303 29.9642 36.2729C30.68 36.1658 31.3824 36.1753 32.0675 35.7849L32.722 36.5102C31.0628 37.7829 29.1164 38.6135 26.751 38.6977H26.7529Z" fill="black"/>
<path d="M33.0853 21.8907L30.9609 20.0611L32.4537 18.6047L34.444 20.5281L33.0853 21.8907Z" fill="black"/>
<path d="M21.057 33.513C20.9728 33.5915 20.657 33.5647 20.5594 33.5303C20.4408 33.4882 20.2858 33.159 20.3834 33.0595C20.8695 32.5695 21.4627 31.8806 21.9412 32.114C22.0541 32.1695 22.1364 32.5236 22.0426 32.6097L21.0589 33.513H21.057Z" fill="black"/>
<path d="M26.1284 23.4065C26.1284 23.5691 25.8643 23.8026 25.7055 23.7835C25.562 23.7682 25.3457 23.5175 25.3457 23.3644L25.3591 22.1395C25.3591 21.9941 25.6481 21.8046 25.7801 21.8314C25.9122 21.8582 26.1342 22.0879 26.1323 22.241L26.1265 23.4065H26.1284Z" fill="black"/>
<path d="M20.3761 28.9755L19.134 28.9832C18.9809 28.9832 18.7589 28.7325 18.7627 28.5908C18.7666 28.4492 18.9867 28.2234 19.1283 28.2234H20.3722C20.5254 28.2215 20.7454 28.4531 20.755 28.5966C20.7646 28.7401 20.5292 28.9755 20.3761 28.9755Z" fill="black"/>
<path d="M22.2057 24.7881C22.2784 24.8589 22.2612 25.1421 22.1923 25.2187C22.1119 25.3105 21.7732 25.3909 21.6737 25.2972L20.7053 24.3843C20.6 24.2848 20.6708 23.9632 20.7742 23.8924C20.8775 23.8216 21.1837 23.8082 21.2756 23.8963L22.2057 24.7881Z" fill="black"/>
<path d="M30.5362 23.0561L29.3516 23.9287L30.0769 22.7307L30.5362 23.0561Z" fill="black"/>
</g>
<defs>
<clipPath id="clip0_249_362">
<rect width="23.2009" height="23" fill="white" transform="translate(16.5 16)"/>
</clipPath>
</defs>
</svg>
