<svg width="56" height="56" viewBox="0 0 56 56" fill="none" xmlns="http://www.w3.org/2000/svg">
<circle cx="28" cy="28" r="27.5" fill="#DFDFF0" stroke="#D5D5EB"/>
<g clip-path="url(#clip0_249_392)">
<path d="M31.3199 25.1808L28.785 28.4104L27.6267 29.9596C27.2921 30.4073 26.903 30.7032 26.3575 30.8456C25.6319 31.0367 24.9155 30.6583 24.5045 30.0832C24.2572 29.7366 23.7899 28.9012 24.2063 28.5021L29.4651 23.4762C29.156 22.3185 29.2451 21.1646 29.907 20.2954C30.7544 19.1826 32.1763 18.8792 33.3092 19.679L31.5763 21.3257C31.4763 21.4212 31.489 21.7041 31.5726 21.7902L32.5509 22.798C32.6655 22.9161 33.0001 22.9404 33.1128 22.8074L34.5003 21.1758C34.8239 21.6216 35.084 22.1799 34.9676 22.7344C34.6112 24.4184 33.0383 25.4806 31.3144 25.179L31.3199 25.1808ZM29.4087 25.6286L30.3416 24.705L30.0324 24.3697L29.1432 25.2914L29.4087 25.6286ZM26.0611 28.2867C25.6465 28.3092 25.3973 28.637 25.4519 29.0473C25.4919 29.3432 25.8174 29.6542 26.2247 29.5662C26.4738 29.5137 26.7848 29.2215 26.7193 28.8337C26.6757 28.5771 26.3575 28.2717 26.0611 28.2867Z" fill="black"/>
<path d="M34.0058 25.4525L34.8223 24.883C34.655 26.4209 33.964 27.721 33.0839 28.9218C32.0383 30.3529 31.44 31.1378 31.2927 33.0898L24.05 33.0991C23.4172 33.0991 23.83 32.2037 23.0536 30.6957C22.6335 29.879 22.168 29.1803 21.6243 28.4347C19.9477 26.1325 19.4859 23.0753 20.6351 20.4415C22.5571 16.0355 27.9614 14.6456 31.7292 17.463C32.0001 17.6653 32.2019 17.9894 32.2783 18.276C31.9037 18.4427 31.6382 18.276 31.3291 18.053C29.4743 16.7249 27.1704 16.3221 24.8847 17.24C23.1045 17.9538 21.4952 19.6172 20.9424 21.7958C20.3896 23.9744 20.9024 26.1325 22.1516 27.9121C23.1445 29.3264 24.07 30.647 24.3392 32.3929L30.6708 32.3892C31.0163 29.2627 33.2439 28.5134 34.0058 25.4543V25.4525Z" fill="black"/>
<path d="M23.0934 24.6319C23.1553 24.4933 22.9861 24.128 22.8989 23.9931L22.0497 23.7965L21.9951 22.6013C22.1424 22.5245 22.4261 22.3934 22.6116 22.3091C22.797 22.2248 23.008 21.7321 22.9043 21.5504L22.4897 20.8311L23.2807 19.9881L23.9826 20.3234L24.6263 20.0106L24.89 19.0908L25.9883 19.0103L26.2665 19.7221C26.7375 20.1361 27.2303 20.0293 27.634 19.5423C28.014 19.7783 28.4359 20.1005 28.6068 20.4058L28.3013 21.0315C28.2377 21.1626 28.525 21.4436 28.5286 21.5991L28.5796 23.2869L25.2773 26.3123C25.0773 25.917 24.7354 25.7334 24.3081 25.7484L23.6317 26.168L22.7643 25.3625L23.0898 24.6319H23.0934ZM27.2467 22.7905C27.2067 21.8913 26.432 21.3275 25.701 21.3369C24.9755 21.3462 24.2845 21.9288 24.2281 22.7362C24.1772 23.4574 24.6336 24.1543 25.3101 24.3528C26.2502 24.6282 27.2976 23.8808 27.2485 22.7905H27.2467Z" fill="black"/>
<path d="M29.936 37.0798C29.5796 38.6215 28.2158 39.2435 26.7919 38.9156C25.8809 38.7058 25.2027 38.0483 25.0136 37.0911L24.1444 37.0405C23.988 37.0311 23.7916 36.7333 23.8098 36.5947C23.828 36.456 24.0698 36.2668 24.2335 36.2668L27.4338 36.2743L30.7615 36.2668C30.8979 36.2668 31.127 36.471 31.147 36.5984C31.167 36.7258 30.9743 37.018 30.8506 37.0255L29.9378 37.0798H29.936Z" fill="black"/>
<path d="M30.8235 34.7138L24.2172 34.7251C23.9772 34.7251 23.7535 34.4347 23.7371 34.2437C23.7208 34.0526 23.9535 33.6442 24.1899 33.6442L30.758 33.6367C30.9489 33.6367 31.1435 33.9102 31.1835 34.062C31.229 34.2324 31.1144 34.7157 30.8235 34.7157V34.7138Z" fill="black"/>
<path d="M30.6268 36.0476L24.3224 36.042C24.0514 36.042 23.8114 35.8322 23.7678 35.5943C23.7241 35.3564 23.9205 34.9761 24.2224 34.9761H30.6959C30.9814 34.9742 31.185 35.2833 31.185 35.5175C31.185 35.7516 30.965 36.0476 30.625 36.0476H30.6268Z" fill="black"/>
<path d="M28.256 30.7688C28.0142 30.6096 31.0236 26.7881 31.3673 26.8143C30.4363 28.2436 29.3343 29.4238 28.256 30.7688Z" fill="black"/>
</g>
<defs>
<clipPath id="clip0_249_392">
<rect width="15" height="23" fill="white" transform="translate(20 16)"/>
</clipPath>
</defs>
</svg>
