<svg width="56" height="56" viewBox="0 0 56 56" fill="none" xmlns="http://www.w3.org/2000/svg">
<circle cx="28" cy="28" r="27.5" fill="#DFDFF0" stroke="#D5D5EB"/>
<g clip-path="url(#clip0_249_294)">
<path d="M10.6675 19.7897L10.6381 30.1257L14.9822 30.1945C15.1157 30.1945 15.2809 30.4167 15.2311 30.4855C15.1813 30.5542 15.0071 30.6619 14.8895 30.6642L10.7105 30.7535L10.724 32.3574L35.298 32.3483L35.3501 30.1601C35.3546 30.0112 35.8478 29.9928 35.9655 30.1028L35.9994 33.3496C35.6917 33.4871 35.47 33.6291 35.4564 33.8078C35.4315 34.1309 35.6261 34.273 35.9632 34.399L35.9542 37.4991H19.7789C18.5458 37.5014 17.4349 37.4097 16.2266 37.561C17.2403 38.0169 18.1815 37.5701 19.2404 37.8268C18.9304 38.1315 18.5639 38.1957 18.1159 38.2484L18.0571 38.9793L11.6426 39.0022C11.5657 38.6058 11.5521 38.2277 11.6472 37.852L15.8397 37.8405C15.8986 37.8405 16.0298 37.5404 15.9845 37.5335C15.9393 37.5266 15.7741 37.4808 15.6972 37.4808H11.0883L11.0634 34.3211L11.5159 34.2088C11.6155 34.1836 11.654 33.8789 11.6404 33.778L11.5816 33.2671C11.5702 33.1709 10.0045 33.3679 10.0045 32.5568L10 18.1995C10 17.5603 10.4457 17.4824 10.8258 17.141C11.0476 16.9416 10.9141 16.1443 11.4277 16.0137L22.7225 16.0022L22.8176 17.3357L28.0351 17.3449C28.474 17.3449 28.6596 17.6473 28.6686 18.0804C28.6686 18.1743 28.689 18.3599 28.7003 18.4287C28.7161 18.5203 28.9763 18.5249 29.103 18.5249H38.3254L38.3661 20.4748L37.228 20.5367L37.2076 29.3192L29.6189 29.3581V20.6719C29.2863 20.6696 29.0148 20.681 28.6641 20.7177V29.837L31.3837 29.8737C31.567 29.876 31.6304 30.3732 31.4697 30.3846L30.0737 30.4832L30.0579 31.6861C30.0579 31.7548 29.9198 31.9427 29.8723 31.9106L29.628 31.748L29.7026 30.4328L15.5343 30.4213L15.5411 18.1125L10.7218 18.1056L10.6969 19.304L15.1542 19.3314V28.5929C15.1542 28.6708 15.0388 28.8495 14.9686 28.8724C14.8985 28.8953 14.7628 28.6868 14.7605 28.5997L14.7379 19.7874H10.6675V19.7897ZM16.0705 17.031C14.5523 16.7308 13.0681 16.7492 11.5657 17.0402C13.093 17.2372 14.5478 17.2716 16.0705 17.031ZM21.9442 17.1776C22.0325 17.1776 22.1705 17.0814 22.2089 17.0516C22.2474 17.0218 22.0415 16.8821 21.9714 16.8821L17.1996 16.8683C17.1407 16.8683 16.919 17.0241 16.962 17.0516C17.005 17.0791 17.1498 17.1799 17.2131 17.1799L21.9442 17.1753V17.1776ZM23.7158 21.5792L22.8922 18.1102L20.5527 18.1033L19.7789 21.5861L23.7158 21.5792ZM16.8873 29.6377L16.8692 18.3393C16.7584 18.2248 16.204 18.2339 16.2018 18.4149L16.1837 29.6973C16.4371 29.75 16.6769 29.7408 16.8873 29.6377ZM27.5554 29.2298L27.5509 19.304C27.5509 19.139 26.8948 19.0863 26.8948 19.2673L26.888 29.2619C27.1255 29.3123 27.3518 29.3169 27.5554 29.2321V29.2298ZM37.6918 19.9707L37.6805 19.1573H28.7704C28.6958 19.3956 28.698 19.7072 28.7704 19.9455L37.6918 19.9707ZM36.1668 24.6129L36.1759 21.0889L30.4742 21.1255L30.481 24.6243L32.1847 24.645C33.5355 24.661 34.7731 24.6977 36.1668 24.6152V24.6129ZM23.0506 23.7605C23.2294 23.1762 23.2135 22.6378 23.1298 22.1154L20.2405 22.1314C20.236 22.7386 20.2495 23.1442 20.3265 23.7582C21.2654 23.8407 22.0913 23.8453 23.0506 23.7582V23.7605ZM22.1162 26.8583C22.175 26.022 22.1773 25.243 22.1592 24.4731C21.856 24.4662 21.5867 24.4708 21.3763 24.4914L21.4035 26.8171C21.4035 26.9821 22.1026 27.0279 22.1162 26.8583ZM31.2864 25.912C31.3656 25.8502 31.4312 25.3598 31.334 25.3438L30.99 25.2819C30.8792 25.2613 30.5013 25.298 30.4991 25.4125L30.4923 25.9372C30.6484 26.0289 31.1349 26.0358 31.2864 25.9143V25.912ZM32.825 25.259L31.9268 25.2957V26.0014L32.8408 25.9877L32.825 25.259ZM34.1464 25.3782C33.9857 25.3026 33.5807 25.2911 33.4608 25.4011C33.3907 25.4652 33.3929 25.7746 33.4382 25.8593C33.5174 26.0037 34.2165 26.022 34.2527 25.8021C34.2663 25.7196 34.2188 25.4125 34.1464 25.3782ZM36.2121 25.9647L36.185 25.3163L34.8726 25.3026L34.8659 25.9877L36.2098 25.9647H36.2121ZM31.3136 27.1287C31.4584 27.0485 31.4109 26.4436 31.2457 26.4276C31.0805 26.4115 30.7615 26.4138 30.5692 26.4322C30.3995 26.4482 30.4289 26.9821 30.5262 27.1173C30.6416 27.2777 31.1281 27.2318 31.3136 27.131V27.1287ZM32.816 26.5238C32.6983 26.3405 32.0512 26.3634 31.9494 26.5582C31.8906 26.6728 31.8702 26.9637 31.9154 27.0691C31.9788 27.2181 32.5196 27.2983 32.877 27.0943C32.9698 27.0416 32.8906 26.6384 32.816 26.5215V26.5238ZM34.3862 26.423L33.3567 26.4551L33.3522 27.1929L34.3975 27.1997L34.3862 26.4253V26.423ZM31.2774 27.6718C31.0602 27.6557 30.6303 27.6511 30.4968 27.658C30.4606 27.9627 30.4334 28.3637 30.619 28.3729C30.8045 28.3821 31.1484 28.3821 31.3023 28.3729C31.4561 28.3637 31.429 27.6855 31.2797 27.6718H31.2774ZM32.8725 28.3683L32.8522 27.6282L31.8928 27.6465L31.9064 28.3752L32.8725 28.3683ZM25.9626 29.8393L26.001 28.2354C26.0033 28.1163 25.768 27.839 25.6503 27.839L17.7516 27.8528C17.6249 28.5745 17.6295 29.1703 17.7177 29.8416H25.9626V29.8393ZM35.3093 34.2707L35.1645 33.3931L12.2377 33.3794C12.1246 33.6979 12.1404 34.0415 12.3011 34.2798L35.3116 34.2707H35.3093Z" fill="black"/>
<path d="M37.108 36.885C36.9112 36.5459 36.918 36.1312 37.1329 35.8929H44.0383L44.0474 22.0741L38.3253 22.0557C38.2914 21.6777 38.2959 21.4096 38.3344 21.0544L45.0022 21.0682L44.9886 36.8621L37.108 36.885Z" fill="black"/>
<path d="M34.7686 38.9861L28.3587 38.9953C28.3134 38.6447 28.3044 38.2804 28.3248 37.8611H34.7867C34.8026 38.23 34.798 38.537 34.7686 38.9884V38.9861Z" fill="black"/>
<path d="M38.9477 24.6313C38.7847 24.464 39.3165 23.9072 39.4771 24.0401L40.6423 25.0116L42.4977 23.0778C42.7579 23.0595 43.0339 23.4398 43.0723 23.7239L40.6966 26.3383C40.0473 25.7403 39.5608 25.2614 38.9477 24.6313Z" fill="black"/>
<path d="M38.9638 28.7921C38.7602 28.5768 39.3711 28.0337 39.5815 28.2285L40.6223 29.1931L42.4935 27.2776C42.7016 27.1974 43.0885 27.6557 43.0682 27.9031L40.6992 30.5244C40.0453 29.9103 39.586 29.4543 38.9638 28.7944V28.7921Z" fill="black"/>
<path d="M38.9548 32.9578C38.8236 32.8066 39.3078 32.3369 39.525 32.3758L40.6246 33.3932L42.4912 31.4731C42.7175 31.4616 43.1361 32.0161 42.9935 32.1719L40.6676 34.6992C40.0228 34.1378 39.5567 33.6544 38.9548 32.9578Z" fill="black"/>
<path d="M30.9428 30.9459C31.1872 30.9528 31.108 31.867 30.9971 31.89C30.9066 31.9083 30.7166 31.9152 30.6261 31.8991C30.5356 31.8831 30.4948 31.5898 30.4994 31.4936L30.5175 31.0697C30.522 30.9597 30.8116 30.9414 30.9428 30.9459Z" fill="black"/>
<path d="M30.7822 24.3655L30.9474 22.1246L31.0266 24.0539L35.7192 24.063L35.7916 21.7717L35.8572 24.2807L33.9499 24.3449L30.7822 24.3655Z" fill="black"/>
</g>
<defs>
<clipPath id="clip0_249_294">
<rect width="35" height="23" fill="white" transform="translate(10 16)"/>
</clipPath>
</defs>
</svg>
