<svg width="56" height="56" viewBox="0 0 56 56" fill="none" xmlns="http://www.w3.org/2000/svg">
<circle cx="28" cy="28" r="27.5" fill="#DFDFF0" stroke="#D5D5EB"/>
<g clip-path="url(#clip0_249_381)">
<path d="M31.847 33.737C30.748 30.6916 31.6937 27.5435 34.0851 25.5261C35.7288 24.1397 37.8584 23.6114 40.0139 23.9867C44.4452 24.7588 47.063 29.377 45.5867 33.6915C44.582 36.6269 41.8228 38.5464 38.8371 38.5894C35.8514 38.6324 32.9436 36.7751 31.847 33.737ZM35.2713 32.5418L37.8867 35.0971L43.7566 28.5929L42.1317 27.1037L37.8254 31.9657L35.6015 29.8383L34.1299 31.3968L35.2689 32.5418H35.2713Z" fill="black"/>
<path d="M21.5974 25.1245C17.9514 26.5683 15.8643 30.1467 15.6284 34.1051L12.4164 34.1147C12.3173 32.3673 12.3126 30.9092 12.7418 29.2168L15.0011 29.9316C15.1803 29.9889 15.5695 29.769 15.6119 29.6017C15.6544 29.4344 15.4657 29.0806 15.303 29.0232L13.0083 28.2177C13.5436 26.6735 14.1592 25.4186 15.1497 24.1134L17.0175 25.7556C17.1613 25.8823 17.5717 25.8608 17.6849 25.7174C17.8547 25.4998 17.7769 25.1222 17.574 24.9429L15.7511 23.3198C16.8878 22.0768 17.9702 21.1637 19.4937 20.3821L20.5526 22.825C20.6517 23.0521 20.9795 23.2003 21.1847 23.131C21.4747 23.033 21.5903 22.6362 21.4629 22.3589L20.3781 19.9781C21.845 19.3375 23.3331 18.9718 25.0193 18.8833L25.0146 21.4482C25.0146 21.7494 25.2316 22.0266 25.524 22.0314C25.7999 22.0362 26.0263 21.747 26.0263 21.4482V18.8618C27.6748 18.8953 29.1205 19.1845 30.6487 19.8538L29.6605 22.1916C29.5709 22.4043 29.6228 22.7796 29.7832 22.88C30.0473 23.0473 30.4458 22.8943 30.5567 22.6338L31.5708 20.2602C32.7806 20.8171 33.7782 21.5749 34.7474 22.5956L34.3512 24.0035C33.856 23.5565 33.3796 23.131 32.9551 22.9445C32.4245 23.2625 32.6768 23.7812 32.941 24.2043L30.4576 26.1285C27.8587 24.362 24.7269 23.8792 21.5903 25.1198L21.5974 25.1245Z" fill="black"/>
<path d="M28.4535 35.2333L31.425 35.2213L32.3802 36.5647L30.2624 36.6053C29.4252 38.0156 28.1069 38.9885 26.4796 39.3375C23.9373 39.9112 21.3172 38.9455 19.8998 36.6029L10.4193 36.5814C8.84868 29.6255 11.7683 22.507 17.7019 18.79C21.4139 16.4666 25.9348 15.857 30.0831 17.2076C33.1678 18.2115 35.663 20.174 37.6015 22.7389L36.795 23.0425C35.0073 20.9461 32.9627 19.2059 30.3473 18.257C24.975 16.304 19.0131 17.8745 15.0936 22.0505C11.799 25.5619 10.3274 30.4 10.9877 35.2309L21.6615 35.2189C22.4445 36.3615 23.5954 37.1169 24.9231 37.1432C26.3287 37.1718 27.6611 36.548 28.4512 35.2333H28.4535Z" fill="black"/>
<path d="M26.27 35.427C25.3479 35.9051 24.3173 35.7688 23.5414 35.231C22.8079 34.7218 22.433 33.7848 22.5061 32.7976C22.6051 31.4375 23.6003 30.3786 25.0035 30.3236C25.4964 30.3045 25.9988 30.3499 26.52 30.369L33.3426 25.127C32.3568 26.413 31.3828 27.5364 30.8994 29.0352L27.7769 32.2167C27.9515 33.5195 27.4798 34.8055 26.27 35.4294V35.427ZM24.855 31.8773C24.2277 32.0423 23.9329 32.6661 24.0838 33.1538C24.2583 33.7131 24.7842 34.0358 25.3644 33.8828C25.836 33.7585 26.2204 33.235 26.1025 32.6996C25.9846 32.1642 25.4681 31.7172 24.855 31.8773Z" fill="black"/>
</g>
<defs>
<clipPath id="clip0_249_381">
<rect width="36" height="23" fill="white" transform="translate(10 16.5)"/>
</clipPath>
</defs>
</svg>
