<svg width="87" height="56" viewBox="0 0 87 56" fill="none" xmlns="http://www.w3.org/2000/svg">
<path fill-rule="evenodd" clip-rule="evenodd" d="M32.8858 14.3164C36.4576 14.3164 39.734 15.5209 42.2836 17.5255C40.115 16.2194 37.5252 15.4596 34.745 15.4596C27.1017 15.4596 20.9069 21.1915 20.9069 28.2626C20.9069 35.3338 27.1017 41.0657 34.745 41.0657C37.527 41.0657 40.115 40.3059 42.2836 38.9998C39.734 41.0026 36.4576 42.2089 32.8858 42.2089C24.7514 42.2089 18.1582 35.9658 18.1582 28.2644C18.1582 20.563 24.7514 14.3199 32.8858 14.3199V14.3164Z" fill="#EF7C00"/>
<path fill-rule="evenodd" clip-rule="evenodd" d="M29.9333 35.4018H37.0611V34.5772C35.9847 34.5772 35.2211 34.087 35.2211 32.9298V21.944H35.6125C37.0035 21.944 38.2756 22.8071 38.8243 24.0816L39.02 24.5141H39.8221L39.3922 21.1404H27.6057L27.1758 24.5141H27.9988L28.1753 24.0816C28.724 22.8071 29.9962 21.944 31.3871 21.944H31.7786V32.9298C31.7786 34.087 31.0149 34.5772 29.9385 34.5772V35.4018H29.9333ZM44.0894 28.2606C44.0894 23.7087 45.5782 21.7479 47.4567 21.7479C49.3353 21.7479 50.8241 23.7105 50.8241 28.2606C50.8241 32.8107 49.3353 34.7925 47.4567 34.7925C45.5782 34.7925 44.0894 32.8317 44.0894 28.2606ZM40.5263 28.2606C40.5263 32.5569 43.0916 35.5979 47.4585 35.5979C51.8254 35.5979 54.3906 32.5569 54.3906 28.2606C54.3906 23.9643 51.8254 20.9233 47.4585 20.9233C43.0916 20.9233 40.5263 23.9836 40.5263 28.2606ZM66.1947 31.2824C66.1947 26.4766 58.5775 27.4185 58.5775 23.7297C58.5775 22.4745 59.4198 21.7479 60.809 21.7479C62.9637 21.7479 64.3721 23.4934 64.5678 24.9255H65.3909L64.9802 21.1387H64.1572V21.1982C64.1572 21.7479 63.9615 21.6884 63.3743 21.4538C62.7277 21.1982 61.9833 20.9233 60.7514 20.9233C57.6968 20.9233 55.6016 22.5515 55.6016 25.1793C55.6016 30.2004 63.2974 29.5334 63.2974 32.8492C63.2974 34.0065 62.3573 34.7908 60.7723 34.7908C58.3644 34.7908 56.9734 33.0261 56.7584 31.6132H55.9564L56.3478 35.4H57.1708V35.3405C57.1708 34.7908 57.3666 34.8503 57.9729 35.0657C58.6195 35.3405 59.3429 35.5961 60.636 35.5961C63.8479 35.5961 66.1964 33.968 66.1964 31.2806L66.1947 31.2824ZM77.9813 31.2824C77.9813 26.4766 70.3641 27.4185 70.3641 23.7297C70.3641 22.4745 71.2064 21.7479 72.5956 21.7479C74.7502 21.7479 76.1587 23.4934 76.3544 24.9255H77.1775L76.7668 21.1387H75.9437V21.1982C75.9437 21.7479 75.748 21.6884 75.1609 21.4538C74.5143 21.1982 73.7699 20.9233 72.538 20.9233C69.4834 20.9233 67.3882 22.5515 67.3882 25.1793C67.3882 30.2004 75.084 29.5334 75.084 32.8492C75.084 34.0065 74.1439 34.7908 72.5589 34.7908C70.1509 34.7908 68.76 33.0261 68.545 31.6132H67.7429L68.1344 35.4H68.9574V35.3405C68.9574 34.7908 69.1531 34.8503 69.7595 35.0657C70.4061 35.3405 71.1295 35.5961 72.4226 35.5961C75.6344 35.5961 77.983 33.968 77.983 31.2806L77.9813 31.2824Z" fill="#2F2483" stroke="#2F2483" stroke-width="0.176512" stroke-miterlimit="22.93"/>
<path fill-rule="evenodd" clip-rule="evenodd" d="M32.6242 43.9697C24.0442 43.9697 17.0893 37.0019 17.0893 28.4058C17.0893 19.8098 24.0442 12.8419 32.6242 12.8419C37.8578 12.8419 42.4868 15.4347 45.302 19.4089L45.6375 19.2075C45.316 18.6701 44.9665 18.1501 44.5908 17.6511L47.0826 15.1214L43.3221 11.4028L40.8215 13.9414C39.7468 13.1588 38.583 12.4935 37.3458 11.9666L38.265 8.43535L33.1519 7.09955L32.2293 10.6448C31.6247 10.5817 31.0096 10.5502 30.3875 10.5502C29.6745 10.5502 28.9738 10.594 28.2835 10.6745L27.2927 7.06104L22.1989 8.46511L23.1897 12.0716C21.9874 12.6056 20.8568 13.2691 19.8136 14.0447L17.1068 11.3678L13.3952 15.1354L16.0828 17.793C15.3139 18.8364 14.6569 19.9673 14.1274 21.1683L10.4333 20.2019L9.09822 25.3246L12.7399 26.2769C12.6613 26.958 12.6193 27.6495 12.6193 28.3516C12.6193 28.9731 12.6508 29.5858 12.7137 30.1916L9.06152 31.1965L10.463 36.2998L14.033 35.3159C14.552 36.5379 15.2038 37.6899 15.971 38.7543L13.362 41.4032L17.1225 45.1217L19.6633 42.5429C20.7205 43.3465 21.8686 44.0345 23.0918 44.5877L22.1797 48.0892L27.2927 49.425L28.1804 46.0163C28.9039 46.1056 29.643 46.1529 30.391 46.1529C31.0078 46.1529 31.6177 46.1214 32.2188 46.0601L33.1519 49.4617L38.2458 48.0577L37.3353 44.74C38.5988 44.2026 39.7853 43.5215 40.8792 42.7197L43.3396 45.1532L47.0512 41.3857L44.6327 38.9959C45.0713 38.4094 45.4732 37.7932 45.8367 37.1542L45.5746 37.0071C42.7926 41.2036 38.0308 43.9697 32.6242 43.9697Z" fill="#E3000F" stroke="#E3000F" stroke-width="0.457326" stroke-miterlimit="22.93"/>
</svg>
