<svg width="56" height="56" viewBox="0 0 56 56" fill="none" xmlns="http://www.w3.org/2000/svg">
<circle cx="28" cy="28" r="27.5" fill="#DFDFF0" stroke="#D5D5EB"/>
<path d="M19.9599 17.8114L17.2801 23.3367C17.1586 23.5879 16.9862 23.8112 16.776 23.9951L14.5938 25.8867C14.1422 26.2775 13.8828 26.8456 13.8828 27.4433V33.481C13.8828 34.6189 14.8056 35.54 15.9419 35.54H39.6212C40.7591 35.54 41.6802 34.6172 41.6802 33.481V27.2988C41.6802 26.7356 41.4503 26.197 41.0431 25.8095L39.1269 23.9803C38.9463 23.8079 38.7985 23.6043 38.6918 23.3794L36.0317 17.8228C35.6886 17.1069 34.9661 16.6521 34.1746 16.6521H21.8137C21.0239 16.6521 20.311 17.0905 19.9662 17.7999L19.9599 17.8114Z" stroke="black" stroke-width="1.05" stroke-miterlimit="10"/>
<path d="M15.8637 27.7978C15.8653 27.6517 16.2742 27.5942 16.6354 27.5729C16.9983 27.5515 19.4284 27.4136 20.7552 29.1952C21.0146 29.5433 21.4021 30.0638 21.2297 30.4645C20.9998 30.9948 19.9325 30.9833 18.5795 30.9686C17.1017 30.9521 16.3628 30.9439 15.9211 30.4727C15.2397 29.7453 15.2282 28.3118 15.8653 27.7978H15.8637Z" stroke="black" stroke-width="1.05" stroke-miterlimit="10"/>
<path d="M39.9225 27.7978C39.8322 27.6517 39.512 27.5942 39.1508 27.5729C38.7879 27.5515 36.3577 27.4136 35.031 29.1952C34.7715 29.5433 34.384 30.0638 34.5564 30.4645C34.7863 30.9948 35.8536 30.9833 37.2066 30.9686C38.6844 30.9521 39.4233 30.9439 39.865 30.4727C40.5465 29.7453 40.5579 28.3118 39.9209 27.7978H39.9225Z" stroke="black" stroke-width="1.05" stroke-miterlimit="10"/>
<path d="M17.0078 23.9229H38.9203" stroke="black" stroke-width="1.05" stroke-miterlimit="10"/>
<path d="M16.5826 23.2562L16.2706 22.4713C16.2 22.2924 16.0259 22.1758 15.8338 22.1758H13.2887C13.0769 22.1758 12.8881 22.3154 12.8355 22.5206C12.7288 22.9393 12.7304 23.4138 12.7518 23.7455C12.7665 23.9853 12.9619 24.1741 13.2017 24.1839L15.819 24.2874C15.9684 24.294 16.1113 24.2283 16.2049 24.1101L16.5136 23.7225C16.6187 23.5912 16.645 23.4138 16.5826 23.2562Z" stroke="black" stroke-width="1.05" stroke-miterlimit="10"/>
<path d="M39.3442 23.2562L39.6562 22.4713C39.7268 22.2924 39.9009 22.1758 40.093 22.1758H42.6397C42.8515 22.1758 43.0404 22.3154 43.0929 22.5206C43.1996 22.9393 43.198 23.4138 43.1767 23.7455C43.1619 23.9853 42.9665 24.1741 42.7267 24.1839L40.1094 24.2874C39.96 24.294 39.8171 24.2283 39.7235 24.1101L39.4148 23.7225C39.3097 23.5912 39.2835 23.4138 39.3459 23.2562H39.3442Z" stroke="black" stroke-width="1.05" stroke-miterlimit="10"/>
<path d="M13.9141 33.8372H18.3343" stroke="black" stroke-width="1.05" stroke-miterlimit="10" stroke-linecap="round"/>
<path d="M41.6819 33.8372H37.0449" stroke="black" stroke-width="1.05" stroke-miterlimit="10" stroke-linecap="round"/>
<path d="M23.1797 29.2675H32.1319" stroke="black" stroke-width="1.05" stroke-miterlimit="10" stroke-linecap="round"/>
<path d="M23.7559 30.6139H31.5521" stroke="black" stroke-width="1.05" stroke-miterlimit="10" stroke-linecap="round"/>
<path d="M21.9766 33.8372H33.3277" stroke="black" stroke-width="1.05" stroke-miterlimit="10" stroke-linecap="round"/>
<path d="M15.4255 35.5399H19.2809V38.7467C19.2809 39.1047 18.9903 39.3953 18.6323 39.3953H16.0724C15.7145 39.3953 15.4238 39.1047 15.4238 38.7467V35.5399H15.4255Z" stroke="black" stroke-width="1.05" stroke-miterlimit="10" stroke-linecap="round"/>
<path d="M39.3628 39.397H36.8029C36.445 39.397 36.1544 39.1063 36.1544 38.7484V35.5416H40.0098V38.7484C40.0098 39.1063 39.7191 39.397 39.3612 39.397H39.3628Z" stroke="black" stroke-width="1.05" stroke-miterlimit="10" stroke-linecap="round"/>
</svg>
