<svg width="56" height="56" viewBox="0 0 56 56" fill="none" xmlns="http://www.w3.org/2000/svg">
<circle cx="28" cy="28" r="27.5" fill="#DFDFF0" stroke="#D5D5EB"/>
<g clip-path="url(#clip0_236_589)">
<path d="M35.7137 20.8844H34.6212V35.1228H35.7137V34.0231H38.9984V32.9306H35.7137V30.7385H38.9984V29.646H35.7137V26.3613H38.9984V25.2616H35.7137V23.0766H38.9984V21.9769H35.7137V20.8844ZM20.3828 35.1228V36.2153H21.4753V39.5H22.5678V36.2153H24.76V39.5H25.8597V36.2153H29.1444V39.5H30.2369V36.2153H32.4291V39.5H33.5216V36.2153H34.6212V35.1228H20.3828ZM32.4291 21.9769H22.5678V23.0766H21.4753V32.9306H22.5678V31.8381H24.76V30.7385H26.9522V29.646H28.0447V28.5535H29.1444V27.4538H30.2369V26.3613H31.3294V24.1691H32.4291V32.9306H33.5216V23.0766H32.4291V21.9769ZM25.8597 27.4538H23.6675V26.3613H25.8597V27.4538ZM29.1444 25.2616H23.6675V24.1691H29.1444V25.2616ZM22.5678 32.9306H32.4291V34.0231H22.5678V32.9306Z" fill="black"/>
<path d="M30.2384 30.7384H31.3309V31.8381H30.2384V30.7384ZM28.0463 30.7384H29.1459V31.8381H28.0463V30.7384ZM34.6228 20.8844V19.7919H33.5231V16.5H32.4306V19.7919H30.2384V16.5H29.1459V19.7919H25.8613V16.5H24.7616V19.7919H22.5694V16.5H21.4769V19.7919H20.3844V20.8844H34.6228ZM20.3844 20.8844H19.2847V21.9769H16V23.0766H19.2847V25.2616H16V26.3613H19.2847V29.6459H16V30.7384H19.2847V32.9306H16V34.0231H19.2847V35.1228H20.3844V20.8844Z" fill="black"/>
</g>
<defs>
<clipPath id="clip0_236_589">
<rect width="23" height="23" fill="white" transform="translate(16 16.5)"/>
</clipPath>
</defs>
</svg>
