<svg width="56" height="56" viewBox="0 0 56 56" fill="none" xmlns="http://www.w3.org/2000/svg">
<circle cx="28" cy="28" r="27.5" fill="#DFDFF0" stroke="#D5D5EB"/>
<mask id="path-2-outside-1_236_578" maskUnits="userSpaceOnUse" x="11.4062" y="19.8125" width="20" height="20" fill="black">
<rect fill="white" x="11.4062" y="19.8125" width="20" height="20"/>
<path d="M15.0599 32.1112C15.1864 32.1414 15.3582 32.2974 15.4078 32.4397L15.6593 33.0463C15.7161 33.1628 15.7053 33.3935 15.6377 33.5042L14.6337 35.1458C14.4187 35.498 14.4633 35.9968 14.7522 36.3203L15.6025 37.1698C15.8987 37.4329 16.4212 37.4803 16.7619 37.274L18.4035 36.2699C18.5063 36.2067 18.7269 36.1844 18.8815 36.257L19.4874 36.5071C19.6096 36.5495 19.7655 36.7206 19.7957 36.8471L20.2464 38.7187C20.342 39.1155 20.7207 39.4418 21.1276 39.4792C21.1276 39.4792 21.377 39.5022 21.7507 39.5022C22.1245 39.5022 22.3739 39.4792 22.3746 39.4792C22.5807 39.4552 22.7748 39.37 22.9318 39.2344C23.0888 39.0988 23.2014 38.9191 23.2551 38.7187L23.7064 36.8471C23.7366 36.7213 23.8919 36.5495 24.0342 36.4999L24.6408 36.2484C24.7479 36.1959 24.9959 36.2067 25.0987 36.2699L26.7403 37.274C26.8848 37.3624 27.0572 37.4092 27.2405 37.4092C27.4885 37.4092 27.7286 37.3222 27.9147 37.1562L28.7643 36.3059C28.8987 36.1468 28.9808 35.9501 28.9994 35.7427C29.0181 35.5352 28.9724 35.3271 28.8685 35.1465L27.8644 33.5049C27.7968 33.3942 27.7861 33.1635 27.8515 33.0269L28.1016 32.421C28.144 32.2988 28.3151 32.1429 28.4416 32.1127L30.3132 31.662C30.5132 31.6075 30.6924 31.4945 30.8279 31.3375C30.9633 31.1805 31.0489 30.9867 31.0736 30.7808C31.0736 30.7808 31.0966 30.5314 31.0966 30.1577C31.0966 29.7839 31.0736 29.5345 31.0736 29.5338C31.0489 29.328 30.9633 29.1341 30.8279 28.9772C30.6924 28.8202 30.5132 28.7072 30.3132 28.6526L28.4423 28.2027C28.3158 28.1725 28.144 28.0165 28.0944 27.8742L27.8428 27.2676C27.7861 27.1512 27.7968 26.9204 27.8644 26.8097L28.8685 25.1681C29.0834 24.8159 29.0388 24.3171 28.7499 23.9937L27.8996 23.1441C27.6028 22.8803 27.0795 22.8329 26.7403 23.0399L25.0987 24.044C24.9959 24.1065 24.7745 24.1302 24.6207 24.0569L24.0148 23.8068C23.8926 23.7644 23.7373 23.5933 23.7072 23.4668L23.2558 21.5952C23.2012 21.3952 23.0882 21.216 22.9312 21.0805C22.7743 20.9451 22.5805 20.8595 22.3746 20.8348C22.3732 20.8355 22.1237 20.8125 21.75 20.8125C21.3763 20.8125 21.1268 20.8355 21.1261 20.8355C20.9203 20.8602 20.7265 20.9458 20.5695 21.0812C20.4125 21.2167 20.2995 21.3959 20.2449 21.5959L19.795 23.4661C19.7648 23.5926 19.6088 23.7644 19.4665 23.814L18.8599 24.0656C18.7521 24.118 18.5048 24.1065 18.4021 24.044L16.7612 23.0399C16.4212 22.8329 15.9094 22.8688 15.5867 23.1578L14.7372 24.0081C14.6028 24.1672 14.5206 24.3638 14.502 24.5713C14.4834 24.7787 14.5291 24.9869 14.6329 25.1674L15.637 26.809C15.7046 26.9197 15.7154 27.1504 15.65 27.287L15.3998 27.8929C15.3574 28.0151 15.1864 28.1711 15.0599 28.2013L13.1883 28.6519C12.9882 28.7065 12.809 28.8195 12.6736 28.9765C12.5381 29.1334 12.4525 29.3272 12.4278 29.5331C12.4292 29.5331 12.4062 29.7825 12.4062 30.1562C12.4062 30.53 12.4293 30.7794 12.4293 30.7801C12.454 30.986 12.5395 31.1798 12.675 31.3368C12.8105 31.4937 12.9897 31.6067 13.1897 31.6613L15.0599 32.1112ZM13.125 30.1562C13.125 29.8271 13.1444 29.605 13.1451 29.5978C13.1568 29.542 13.1825 29.49 13.2197 29.4468C13.2569 29.4035 13.3044 29.3704 13.3579 29.3505L15.2295 28.8999C15.5925 28.8122 15.9583 28.4801 16.0719 28.1473L16.3047 27.5817C16.4686 27.246 16.4456 26.753 16.2508 26.4338L15.2467 24.7929C15.1986 24.7132 15.2123 24.555 15.2597 24.5011L16.0798 23.6803C16.1452 23.6221 16.3119 23.6077 16.3867 23.653L18.0283 24.6571C18.3395 24.8476 18.8728 24.8605 19.1553 24.7203L19.7217 24.486C20.0746 24.3646 20.4067 23.9987 20.4943 23.635L20.9443 21.7641C20.9641 21.7105 20.9971 21.6629 21.0404 21.6255C21.0836 21.5882 21.1356 21.5624 21.1915 21.5507C21.1987 21.5507 21.4208 21.5312 21.75 21.5312C22.0792 21.5312 22.3013 21.5507 22.3085 21.5514C22.3643 21.5631 22.4162 21.5887 22.4595 21.6259C22.5027 21.6631 22.5358 21.7107 22.5557 21.7641L23.0064 23.635C23.0941 23.998 23.4254 24.3646 23.7589 24.4781L24.3246 24.711C24.653 24.872 25.1619 24.8468 25.4724 24.6571L27.1133 23.653C27.1881 23.6077 27.3649 23.6314 27.4051 23.6659L28.2259 24.486C28.2878 24.5558 28.3014 24.7132 28.2533 24.7929L27.2492 26.4346C27.0544 26.753 27.0314 27.2468 27.1859 27.5616L27.4202 28.1279C27.5417 28.4808 27.9075 28.8129 28.2712 28.9006L30.1421 29.3505C30.1957 29.3703 30.2434 29.4034 30.2807 29.4466C30.3181 29.4899 30.3438 29.5419 30.3556 29.5978C30.3556 29.605 30.375 29.8271 30.375 30.1562C30.375 30.4854 30.3556 30.7075 30.3549 30.7147C30.3432 30.7705 30.3175 30.8225 30.2803 30.8657C30.2431 30.909 30.1956 30.9421 30.1421 30.962L28.2705 31.4126C27.9075 31.5003 27.5417 31.8324 27.4281 32.1652L27.1953 32.7308C27.0314 33.0665 27.0544 33.5595 27.2492 33.8787L28.2533 35.5196C28.3014 35.5993 28.2878 35.7575 28.2403 35.8114L27.4202 36.6322C27.3682 36.6709 27.3046 36.6909 27.2398 36.689C27.196 36.6903 27.1527 36.6801 27.114 36.6595L25.4724 35.6554C25.1619 35.4657 24.6286 35.452 24.3454 35.5922L23.779 35.8265C23.4261 35.9479 23.0941 36.3145 23.0071 36.6775L22.5564 38.5484C22.5366 38.602 22.5036 38.6496 22.4603 38.687C22.4171 38.7243 22.3651 38.7501 22.3092 38.7618C22.3013 38.7618 22.0792 38.7812 21.75 38.7812C21.4208 38.7812 21.1987 38.7618 21.1915 38.7611C21.1357 38.7494 21.0838 38.7238 21.0405 38.6866C20.9973 38.6494 20.9642 38.6018 20.9443 38.5484L20.4936 36.6768C20.4059 36.3138 20.0739 35.9479 19.7411 35.8344L19.1754 35.6015C19.0149 35.5259 18.839 35.4885 18.6615 35.4922C18.4251 35.4922 18.2001 35.5505 18.0276 35.6561L16.3867 36.6602C16.3119 36.7055 16.1344 36.6811 16.0949 36.6473L15.2741 35.8265C15.2123 35.7567 15.1986 35.5993 15.2467 35.5196L16.2508 33.8779C16.4456 33.5595 16.4686 33.0658 16.3141 32.7509L16.0798 32.1846C15.9583 31.8317 15.5925 31.4996 15.2288 31.4119L13.3579 30.962C13.3043 30.9422 13.2566 30.9091 13.2193 30.8659C13.1819 30.8226 13.1562 30.7706 13.1444 30.7147C13.1444 30.7075 13.125 30.4854 13.125 30.1562Z"/>
</mask>
<path d="M15.0599 32.1112C15.1864 32.1414 15.3582 32.2974 15.4078 32.4397L15.6593 33.0463C15.7161 33.1628 15.7053 33.3935 15.6377 33.5042L14.6337 35.1458C14.4187 35.498 14.4633 35.9968 14.7522 36.3203L15.6025 37.1698C15.8987 37.4329 16.4212 37.4803 16.7619 37.274L18.4035 36.2699C18.5063 36.2067 18.7269 36.1844 18.8815 36.257L19.4874 36.5071C19.6096 36.5495 19.7655 36.7206 19.7957 36.8471L20.2464 38.7187C20.342 39.1155 20.7207 39.4418 21.1276 39.4792C21.1276 39.4792 21.377 39.5022 21.7507 39.5022C22.1245 39.5022 22.3739 39.4792 22.3746 39.4792C22.5807 39.4552 22.7748 39.37 22.9318 39.2344C23.0888 39.0988 23.2014 38.9191 23.2551 38.7187L23.7064 36.8471C23.7366 36.7213 23.8919 36.5495 24.0342 36.4999L24.6408 36.2484C24.7479 36.1959 24.9959 36.2067 25.0987 36.2699L26.7403 37.274C26.8848 37.3624 27.0572 37.4092 27.2405 37.4092C27.4885 37.4092 27.7286 37.3222 27.9147 37.1562L28.7643 36.3059C28.8987 36.1468 28.9808 35.9501 28.9994 35.7427C29.0181 35.5352 28.9724 35.3271 28.8685 35.1465L27.8644 33.5049C27.7968 33.3942 27.7861 33.1635 27.8515 33.0269L28.1016 32.421C28.144 32.2988 28.3151 32.1429 28.4416 32.1127L30.3132 31.662C30.5132 31.6075 30.6924 31.4945 30.8279 31.3375C30.9633 31.1805 31.0489 30.9867 31.0736 30.7808C31.0736 30.7808 31.0966 30.5314 31.0966 30.1577C31.0966 29.7839 31.0736 29.5345 31.0736 29.5338C31.0489 29.328 30.9633 29.1341 30.8279 28.9772C30.6924 28.8202 30.5132 28.7072 30.3132 28.6526L28.4423 28.2027C28.3158 28.1725 28.144 28.0165 28.0944 27.8742L27.8428 27.2676C27.7861 27.1512 27.7968 26.9204 27.8644 26.8097L28.8685 25.1681C29.0834 24.8159 29.0388 24.3171 28.7499 23.9937L27.8996 23.1441C27.6028 22.8803 27.0795 22.8329 26.7403 23.0399L25.0987 24.044C24.9959 24.1065 24.7745 24.1302 24.6207 24.0569L24.0148 23.8068C23.8926 23.7644 23.7373 23.5933 23.7072 23.4668L23.2558 21.5952C23.2012 21.3952 23.0882 21.216 22.9312 21.0805C22.7743 20.9451 22.5805 20.8595 22.3746 20.8348C22.3732 20.8355 22.1237 20.8125 21.75 20.8125C21.3763 20.8125 21.1268 20.8355 21.1261 20.8355C20.9203 20.8602 20.7265 20.9458 20.5695 21.0812C20.4125 21.2167 20.2995 21.3959 20.2449 21.5959L19.795 23.4661C19.7648 23.5926 19.6088 23.7644 19.4665 23.814L18.8599 24.0656C18.7521 24.118 18.5048 24.1065 18.4021 24.044L16.7612 23.0399C16.4212 22.8329 15.9094 22.8688 15.5867 23.1578L14.7372 24.0081C14.6028 24.1672 14.5206 24.3638 14.502 24.5713C14.4834 24.7787 14.5291 24.9869 14.6329 25.1674L15.637 26.809C15.7046 26.9197 15.7154 27.1504 15.65 27.287L15.3998 27.8929C15.3574 28.0151 15.1864 28.1711 15.0599 28.2013L13.1883 28.6519C12.9882 28.7065 12.809 28.8195 12.6736 28.9765C12.5381 29.1334 12.4525 29.3272 12.4278 29.5331C12.4292 29.5331 12.4062 29.7825 12.4062 30.1562C12.4062 30.53 12.4293 30.7794 12.4293 30.7801C12.454 30.986 12.5395 31.1798 12.675 31.3368C12.8105 31.4937 12.9897 31.6067 13.1897 31.6613L15.0599 32.1112ZM13.125 30.1562C13.125 29.8271 13.1444 29.605 13.1451 29.5978C13.1568 29.542 13.1825 29.49 13.2197 29.4468C13.2569 29.4035 13.3044 29.3704 13.3579 29.3505L15.2295 28.8999C15.5925 28.8122 15.9583 28.4801 16.0719 28.1473L16.3047 27.5817C16.4686 27.246 16.4456 26.753 16.2508 26.4338L15.2467 24.7929C15.1986 24.7132 15.2123 24.555 15.2597 24.5011L16.0798 23.6803C16.1452 23.6221 16.3119 23.6077 16.3867 23.653L18.0283 24.6571C18.3395 24.8476 18.8728 24.8605 19.1553 24.7203L19.7217 24.486C20.0746 24.3646 20.4067 23.9987 20.4943 23.635L20.9443 21.7641C20.9641 21.7105 20.9971 21.6629 21.0404 21.6255C21.0836 21.5882 21.1356 21.5624 21.1915 21.5507C21.1987 21.5507 21.4208 21.5312 21.75 21.5312C22.0792 21.5312 22.3013 21.5507 22.3085 21.5514C22.3643 21.5631 22.4162 21.5887 22.4595 21.6259C22.5027 21.6631 22.5358 21.7107 22.5557 21.7641L23.0064 23.635C23.0941 23.998 23.4254 24.3646 23.7589 24.4781L24.3246 24.711C24.653 24.872 25.1619 24.8468 25.4724 24.6571L27.1133 23.653C27.1881 23.6077 27.3649 23.6314 27.4051 23.6659L28.2259 24.486C28.2878 24.5558 28.3014 24.7132 28.2533 24.7929L27.2492 26.4346C27.0544 26.753 27.0314 27.2468 27.1859 27.5616L27.4202 28.1279C27.5417 28.4808 27.9075 28.8129 28.2712 28.9006L30.1421 29.3505C30.1957 29.3703 30.2434 29.4034 30.2807 29.4466C30.3181 29.4899 30.3438 29.5419 30.3556 29.5978C30.3556 29.605 30.375 29.8271 30.375 30.1562C30.375 30.4854 30.3556 30.7075 30.3549 30.7147C30.3432 30.7705 30.3175 30.8225 30.2803 30.8657C30.2431 30.909 30.1956 30.9421 30.1421 30.962L28.2705 31.4126C27.9075 31.5003 27.5417 31.8324 27.4281 32.1652L27.1953 32.7308C27.0314 33.0665 27.0544 33.5595 27.2492 33.8787L28.2533 35.5196C28.3014 35.5993 28.2878 35.7575 28.2403 35.8114L27.4202 36.6322C27.3682 36.6709 27.3046 36.6909 27.2398 36.689C27.196 36.6903 27.1527 36.6801 27.114 36.6595L25.4724 35.6554C25.1619 35.4657 24.6286 35.452 24.3454 35.5922L23.779 35.8265C23.4261 35.9479 23.0941 36.3145 23.0071 36.6775L22.5564 38.5484C22.5366 38.602 22.5036 38.6496 22.4603 38.687C22.4171 38.7243 22.3651 38.7501 22.3092 38.7618C22.3013 38.7618 22.0792 38.7812 21.75 38.7812C21.4208 38.7812 21.1987 38.7618 21.1915 38.7611C21.1357 38.7494 21.0838 38.7238 21.0405 38.6866C20.9973 38.6494 20.9642 38.6018 20.9443 38.5484L20.4936 36.6768C20.4059 36.3138 20.0739 35.9479 19.7411 35.8344L19.1754 35.6015C19.0149 35.5259 18.839 35.4885 18.6615 35.4922C18.4251 35.4922 18.2001 35.5505 18.0276 35.6561L16.3867 36.6602C16.3119 36.7055 16.1344 36.6811 16.0949 36.6473L15.2741 35.8265C15.2123 35.7567 15.1986 35.5993 15.2467 35.5196L16.2508 33.8779C16.4456 33.5595 16.4686 33.0658 16.3141 32.7509L16.0798 32.1846C15.9583 31.8317 15.5925 31.4996 15.2288 31.4119L13.3579 30.962C13.3043 30.9422 13.2566 30.9091 13.2193 30.8659C13.1819 30.8226 13.1562 30.7706 13.1444 30.7147C13.1444 30.7075 13.125 30.4854 13.125 30.1562Z" fill="black"/>
<path d="M15.0599 32.1112C15.1864 32.1414 15.3582 32.2974 15.4078 32.4397L15.6593 33.0463C15.7161 33.1628 15.7053 33.3935 15.6377 33.5042L14.6337 35.1458C14.4187 35.498 14.4633 35.9968 14.7522 36.3203L15.6025 37.1698C15.8987 37.4329 16.4212 37.4803 16.7619 37.274L18.4035 36.2699C18.5063 36.2067 18.7269 36.1844 18.8815 36.257L19.4874 36.5071C19.6096 36.5495 19.7655 36.7206 19.7957 36.8471L20.2464 38.7187C20.342 39.1155 20.7207 39.4418 21.1276 39.4792C21.1276 39.4792 21.377 39.5022 21.7507 39.5022C22.1245 39.5022 22.3739 39.4792 22.3746 39.4792C22.5807 39.4552 22.7748 39.37 22.9318 39.2344C23.0888 39.0988 23.2014 38.9191 23.2551 38.7187L23.7064 36.8471C23.7366 36.7213 23.8919 36.5495 24.0342 36.4999L24.6408 36.2484C24.7479 36.1959 24.9959 36.2067 25.0987 36.2699L26.7403 37.274C26.8848 37.3624 27.0572 37.4092 27.2405 37.4092C27.4885 37.4092 27.7286 37.3222 27.9147 37.1562L28.7643 36.3059C28.8987 36.1468 28.9808 35.9501 28.9994 35.7427C29.0181 35.5352 28.9724 35.3271 28.8685 35.1465L27.8644 33.5049C27.7968 33.3942 27.7861 33.1635 27.8515 33.0269L28.1016 32.421C28.144 32.2988 28.3151 32.1429 28.4416 32.1127L30.3132 31.662C30.5132 31.6075 30.6924 31.4945 30.8279 31.3375C30.9633 31.1805 31.0489 30.9867 31.0736 30.7808C31.0736 30.7808 31.0966 30.5314 31.0966 30.1577C31.0966 29.7839 31.0736 29.5345 31.0736 29.5338C31.0489 29.328 30.9633 29.1341 30.8279 28.9772C30.6924 28.8202 30.5132 28.7072 30.3132 28.6526L28.4423 28.2027C28.3158 28.1725 28.144 28.0165 28.0944 27.8742L27.8428 27.2676C27.7861 27.1512 27.7968 26.9204 27.8644 26.8097L28.8685 25.1681C29.0834 24.8159 29.0388 24.3171 28.7499 23.9937L27.8996 23.1441C27.6028 22.8803 27.0795 22.8329 26.7403 23.0399L25.0987 24.044C24.9959 24.1065 24.7745 24.1302 24.6207 24.0569L24.0148 23.8068C23.8926 23.7644 23.7373 23.5933 23.7072 23.4668L23.2558 21.5952C23.2012 21.3952 23.0882 21.216 22.9312 21.0805C22.7743 20.9451 22.5805 20.8595 22.3746 20.8348C22.3732 20.8355 22.1237 20.8125 21.75 20.8125C21.3763 20.8125 21.1268 20.8355 21.1261 20.8355C20.9203 20.8602 20.7265 20.9458 20.5695 21.0812C20.4125 21.2167 20.2995 21.3959 20.2449 21.5959L19.795 23.4661C19.7648 23.5926 19.6088 23.7644 19.4665 23.814L18.8599 24.0656C18.7521 24.118 18.5048 24.1065 18.4021 24.044L16.7612 23.0399C16.4212 22.8329 15.9094 22.8688 15.5867 23.1578L14.7372 24.0081C14.6028 24.1672 14.5206 24.3638 14.502 24.5713C14.4834 24.7787 14.5291 24.9869 14.6329 25.1674L15.637 26.809C15.7046 26.9197 15.7154 27.1504 15.65 27.287L15.3998 27.8929C15.3574 28.0151 15.1864 28.1711 15.0599 28.2013L13.1883 28.6519C12.9882 28.7065 12.809 28.8195 12.6736 28.9765C12.5381 29.1334 12.4525 29.3272 12.4278 29.5331C12.4292 29.5331 12.4062 29.7825 12.4062 30.1562C12.4062 30.53 12.4293 30.7794 12.4293 30.7801C12.454 30.986 12.5395 31.1798 12.675 31.3368C12.8105 31.4937 12.9897 31.6067 13.1897 31.6613L15.0599 32.1112ZM13.125 30.1562C13.125 29.8271 13.1444 29.605 13.1451 29.5978C13.1568 29.542 13.1825 29.49 13.2197 29.4468C13.2569 29.4035 13.3044 29.3704 13.3579 29.3505L15.2295 28.8999C15.5925 28.8122 15.9583 28.4801 16.0719 28.1473L16.3047 27.5817C16.4686 27.246 16.4456 26.753 16.2508 26.4338L15.2467 24.7929C15.1986 24.7132 15.2123 24.555 15.2597 24.5011L16.0798 23.6803C16.1452 23.6221 16.3119 23.6077 16.3867 23.653L18.0283 24.6571C18.3395 24.8476 18.8728 24.8605 19.1553 24.7203L19.7217 24.486C20.0746 24.3646 20.4067 23.9987 20.4943 23.635L20.9443 21.7641C20.9641 21.7105 20.9971 21.6629 21.0404 21.6255C21.0836 21.5882 21.1356 21.5624 21.1915 21.5507C21.1987 21.5507 21.4208 21.5312 21.75 21.5312C22.0792 21.5312 22.3013 21.5507 22.3085 21.5514C22.3643 21.5631 22.4162 21.5887 22.4595 21.6259C22.5027 21.6631 22.5358 21.7107 22.5557 21.7641L23.0064 23.635C23.0941 23.998 23.4254 24.3646 23.7589 24.4781L24.3246 24.711C24.653 24.872 25.1619 24.8468 25.4724 24.6571L27.1133 23.653C27.1881 23.6077 27.3649 23.6314 27.4051 23.6659L28.2259 24.486C28.2878 24.5558 28.3014 24.7132 28.2533 24.7929L27.2492 26.4346C27.0544 26.753 27.0314 27.2468 27.1859 27.5616L27.4202 28.1279C27.5417 28.4808 27.9075 28.8129 28.2712 28.9006L30.1421 29.3505C30.1957 29.3703 30.2434 29.4034 30.2807 29.4466C30.3181 29.4899 30.3438 29.5419 30.3556 29.5978C30.3556 29.605 30.375 29.8271 30.375 30.1562C30.375 30.4854 30.3556 30.7075 30.3549 30.7147C30.3432 30.7705 30.3175 30.8225 30.2803 30.8657C30.2431 30.909 30.1956 30.9421 30.1421 30.962L28.2705 31.4126C27.9075 31.5003 27.5417 31.8324 27.4281 32.1652L27.1953 32.7308C27.0314 33.0665 27.0544 33.5595 27.2492 33.8787L28.2533 35.5196C28.3014 35.5993 28.2878 35.7575 28.2403 35.8114L27.4202 36.6322C27.3682 36.6709 27.3046 36.6909 27.2398 36.689C27.196 36.6903 27.1527 36.6801 27.114 36.6595L25.4724 35.6554C25.1619 35.4657 24.6286 35.452 24.3454 35.5922L23.779 35.8265C23.4261 35.9479 23.0941 36.3145 23.0071 36.6775L22.5564 38.5484C22.5366 38.602 22.5036 38.6496 22.4603 38.687C22.4171 38.7243 22.3651 38.7501 22.3092 38.7618C22.3013 38.7618 22.0792 38.7812 21.75 38.7812C21.4208 38.7812 21.1987 38.7618 21.1915 38.7611C21.1357 38.7494 21.0838 38.7238 21.0405 38.6866C20.9973 38.6494 20.9642 38.6018 20.9443 38.5484L20.4936 36.6768C20.4059 36.3138 20.0739 35.9479 19.7411 35.8344L19.1754 35.6015C19.0149 35.5259 18.839 35.4885 18.6615 35.4922C18.4251 35.4922 18.2001 35.5505 18.0276 35.6561L16.3867 36.6602C16.3119 36.7055 16.1344 36.6811 16.0949 36.6473L15.2741 35.8265C15.2123 35.7567 15.1986 35.5993 15.2467 35.5196L16.2508 33.8779C16.4456 33.5595 16.4686 33.0658 16.3141 32.7509L16.0798 32.1846C15.9583 31.8317 15.5925 31.4996 15.2288 31.4119L13.3579 30.962C13.3043 30.9422 13.2566 30.9091 13.2193 30.8659C13.1819 30.8226 13.1562 30.7706 13.1444 30.7147C13.1444 30.7075 13.125 30.4854 13.125 30.1562Z" stroke="black" stroke-width="0.5" mask="url(#path-2-outside-1_236_578)"/>
<mask id="path-3-outside-2_236_578" maskUnits="userSpaceOnUse" x="16.7969" y="15.4943" width="27" height="19" fill="black">
<rect fill="white" x="16.7969" y="15.4943" width="27" height="19"/>
<path d="M21.75 34.1094C23.93 34.1094 25.7031 32.3362 25.7031 30.1563C25.7031 27.9763 23.93 26.2031 21.75 26.2031C19.57 26.2031 17.7969 27.9763 17.7969 30.1563C17.7969 32.3362 19.57 34.1094 21.75 34.1094ZM21.75 26.9219C23.5332 26.9219 24.9844 28.373 24.9844 30.1563C24.9844 31.9395 23.5332 33.3906 21.75 33.3906C19.9668 33.3906 18.5156 31.9395 18.5156 30.1563C18.5156 28.373 19.9668 26.9219 21.75 26.9219ZM32.1553 20.3194C32.1072 20.3738 32.0411 20.409 31.9692 20.4186L30.6316 20.4057C30.4665 20.4101 30.3065 20.4634 30.1717 20.5588C30.037 20.6543 29.9336 20.7876 29.8748 20.9419C29.8748 20.9419 29.8158 21.1094 29.7511 21.3659C29.6864 21.6225 29.6591 21.7979 29.6591 21.7979C29.6088 22.1221 29.7892 22.4807 30.0789 22.6324L31.2583 23.2505C31.3213 23.2987 31.3639 23.3687 31.3777 23.4467L31.4445 23.9031C31.4485 23.9752 31.4271 24.0464 31.3841 24.1044L30.4339 25.0359C30.196 25.2688 30.1335 25.6669 30.2974 25.9796L30.7279 26.6984C30.9097 26.9657 31.3036 27.1023 31.6127 27.006L32.9237 26.6049C32.9948 26.6049 33.066 26.6322 33.1062 26.6646L33.4764 26.9377C33.5303 26.9862 33.5654 27.0521 33.5756 27.1239L33.5627 28.455C33.5598 28.7827 33.7898 29.1112 34.0988 29.219C34.0988 29.219 34.2663 29.2779 34.5229 29.3426C34.7795 29.4073 34.9549 29.4346 34.9549 29.4346C34.9736 29.4375 35.0483 29.4433 35.067 29.4433C35.2144 29.4414 35.3587 29.4009 35.4855 29.3257C35.6123 29.2505 35.717 29.1433 35.7893 29.0149L36.4075 27.8354C36.4556 27.7725 36.5256 27.7299 36.6037 27.7161L37.0802 27.6471C37.1521 27.6471 37.2369 27.6845 37.2606 27.7089L38.1921 28.6591C38.4185 28.8905 38.8002 28.9732 39.1358 28.7957L39.8539 28.3651C40.1284 28.1783 40.2614 27.7973 40.1622 27.4804L39.7655 26.2103C39.7546 26.1314 39.7747 26.0513 39.8215 25.9868L40.0947 25.6166C40.1428 25.5623 40.2089 25.5271 40.2808 25.5174L41.6184 25.5304C41.7835 25.526 41.9435 25.4727 42.0783 25.3773C42.213 25.2818 42.3164 25.1485 42.3752 24.9942C42.3752 24.9942 42.4342 24.8267 42.4989 24.5701C42.5636 24.3135 42.5909 24.1382 42.5909 24.1382C42.6122 23.9731 42.5836 23.8054 42.5088 23.6566C42.434 23.5079 42.3164 23.385 42.1711 23.3037L40.9917 22.6856C40.9287 22.6374 40.8861 22.5674 40.8723 22.4894L40.8062 22.0344C40.8022 21.9623 40.8236 21.8911 40.8666 21.8331L41.8168 20.9016C42.0547 20.6688 42.1172 20.2706 41.9533 19.9579L41.5228 19.2392C41.341 18.9725 40.9478 18.8345 40.638 18.9308L39.3263 19.3319C39.2607 19.3319 39.1967 19.311 39.1438 19.2722L38.7736 18.9991C38.7197 18.9506 38.6846 18.8847 38.6744 18.8129L38.6873 17.4818C38.6844 17.3155 38.6317 17.1539 38.5362 17.0177C38.4406 16.8816 38.3065 16.7771 38.1512 16.7178C38.1512 16.7178 37.9837 16.6589 37.7271 16.5942C37.4705 16.5295 37.2951 16.5022 37.2951 16.5022C37.2578 16.4986 37.2204 16.4959 37.183 16.4943C37.0356 16.4961 36.8913 16.5366 36.7645 16.6118C36.6377 16.687 36.533 16.7942 36.4607 16.9226L35.8425 18.1021C35.7944 18.1651 35.7244 18.2076 35.6463 18.2214L35.1698 18.2897C35.1047 18.2881 35.0417 18.2666 34.9894 18.2279L34.0579 17.2777C33.9362 17.1564 33.7787 17.0775 33.6087 17.0529C33.4386 17.0283 33.2652 17.0593 33.1142 17.1411L32.3954 17.571C32.1208 17.7578 31.9879 18.1388 32.0871 18.4557L32.4838 19.7258C32.4946 19.8047 32.4746 19.8848 32.4278 19.9493L32.1553 20.3194ZM32.7447 20.7306L32.9912 20.3956C33.1839 20.1678 33.2586 19.7962 33.1695 19.5123L32.7735 18.243C32.7699 18.2229 32.7857 18.1776 32.7821 18.1769L33.4635 17.7686L33.5447 17.7808L34.4769 18.731C34.6422 18.8992 34.9146 19.0084 35.1705 19.0084C35.2197 19.0089 35.2688 19.0044 35.3171 18.9948L35.7304 18.9337C35.8855 18.9145 36.034 18.8594 36.1641 18.7728C36.2943 18.6862 36.4024 18.5705 36.4801 18.4349L37.0975 17.2561C37.1203 17.232 37.1508 17.2165 37.1837 17.2123C37.1916 17.213 37.3383 17.2375 37.5524 17.2906C37.7659 17.3445 37.9068 17.3927 37.9132 17.3956C37.9355 17.4049 37.9679 17.4516 37.9693 17.4746L37.9564 18.8058C37.9535 19.1033 38.1325 19.4375 38.3639 19.5885L38.6981 19.835C38.9202 20.0226 39.3012 20.1017 39.5815 20.0133L40.8565 19.6165C40.8867 19.6165 40.9205 19.6352 40.9162 19.6259L41.3244 20.3072C41.3323 20.3259 41.3244 20.3734 41.3122 20.3884L40.362 21.3207C40.15 21.5298 40.04 21.8921 40.0982 22.1609L40.1586 22.5742C40.1845 22.8703 40.3944 23.1858 40.6582 23.3238L41.8369 23.9412C41.861 23.9641 41.8765 23.9945 41.8807 24.0275C41.86 24.1515 41.8339 24.2745 41.8024 24.3962C41.7727 24.5179 41.7377 24.6383 41.6975 24.757C41.6881 24.7793 41.6414 24.8116 41.6184 24.8131L40.2801 24.8001C39.9847 24.8001 39.6541 24.9791 39.5046 25.2077L39.2588 25.5419C39.1619 25.6649 39.0953 25.8089 39.0644 25.9623C39.0334 26.1158 39.0389 26.2743 39.0805 26.4252L39.4765 27.6945C39.4801 27.7139 39.4643 27.7599 39.4679 27.7607L38.7865 28.1689L38.7053 28.1567L37.7731 27.2065C37.6078 27.0383 37.3354 26.9291 37.0795 26.9291C37.0303 26.9286 36.9812 26.9332 36.9329 26.9427L36.5196 27.0038C36.3645 27.023 36.216 27.0781 36.0859 27.1647C35.9557 27.2513 35.8476 27.367 35.7699 27.5026L35.1525 28.6814C35.1297 28.7055 35.0992 28.721 35.0663 28.7252C34.9423 28.7045 34.8193 28.6784 34.6976 28.6469C34.5758 28.6172 34.4554 28.5822 34.3367 28.5419C34.3145 28.5326 34.2821 28.4859 34.2807 28.4629L34.2936 27.1318C34.2965 26.8342 34.1175 26.5 33.8861 26.349L33.5519 26.1025C33.4288 26.0056 33.2847 25.9389 33.1311 25.908C32.9775 25.877 32.8188 25.8826 32.6678 25.9243L31.3928 26.321C31.3618 26.321 31.3281 26.3045 31.3331 26.3117L30.9248 25.6303C30.9169 25.6116 30.9248 25.5642 30.9371 25.5491L31.8873 24.6169C32.0993 24.4077 32.2093 24.0454 32.151 23.7766L32.0907 23.3641C32.0714 23.2089 32.0162 23.0604 31.9295 22.9302C31.8428 22.8001 31.7269 22.692 31.5911 22.6144L30.4124 21.997C30.3882 21.9742 30.3727 21.9437 30.3685 21.9108C30.3692 21.9029 30.3937 21.7562 30.4469 21.542C30.5008 21.3286 30.5489 21.1877 30.5518 21.1812C30.5612 21.1589 30.6079 21.1266 30.6309 21.1252L31.9692 21.1381C32.2646 21.1381 32.5952 20.9591 32.7447 20.7306Z"/>
</mask>
<path d="M21.75 34.1094C23.93 34.1094 25.7031 32.3362 25.7031 30.1563C25.7031 27.9763 23.93 26.2031 21.75 26.2031C19.57 26.2031 17.7969 27.9763 17.7969 30.1563C17.7969 32.3362 19.57 34.1094 21.75 34.1094ZM21.75 26.9219C23.5332 26.9219 24.9844 28.373 24.9844 30.1563C24.9844 31.9395 23.5332 33.3906 21.75 33.3906C19.9668 33.3906 18.5156 31.9395 18.5156 30.1563C18.5156 28.373 19.9668 26.9219 21.75 26.9219ZM32.1553 20.3194C32.1072 20.3738 32.0411 20.409 31.9692 20.4186L30.6316 20.4057C30.4665 20.4101 30.3065 20.4634 30.1717 20.5588C30.037 20.6543 29.9336 20.7876 29.8748 20.9419C29.8748 20.9419 29.8158 21.1094 29.7511 21.3659C29.6864 21.6225 29.6591 21.7979 29.6591 21.7979C29.6088 22.1221 29.7892 22.4807 30.0789 22.6324L31.2583 23.2505C31.3213 23.2987 31.3639 23.3687 31.3777 23.4467L31.4445 23.9031C31.4485 23.9752 31.4271 24.0464 31.3841 24.1044L30.4339 25.0359C30.196 25.2688 30.1335 25.6669 30.2974 25.9796L30.7279 26.6984C30.9097 26.9657 31.3036 27.1023 31.6127 27.006L32.9237 26.6049C32.9948 26.6049 33.066 26.6322 33.1062 26.6646L33.4764 26.9377C33.5303 26.9862 33.5654 27.0521 33.5756 27.1239L33.5627 28.455C33.5598 28.7827 33.7898 29.1112 34.0988 29.219C34.0988 29.219 34.2663 29.2779 34.5229 29.3426C34.7795 29.4073 34.9549 29.4346 34.9549 29.4346C34.9736 29.4375 35.0483 29.4433 35.067 29.4433C35.2144 29.4414 35.3587 29.4009 35.4855 29.3257C35.6123 29.2505 35.717 29.1433 35.7893 29.0149L36.4075 27.8354C36.4556 27.7725 36.5256 27.7299 36.6037 27.7161L37.0802 27.6471C37.1521 27.6471 37.2369 27.6845 37.2606 27.7089L38.1921 28.6591C38.4185 28.8905 38.8002 28.9732 39.1358 28.7957L39.8539 28.3651C40.1284 28.1783 40.2614 27.7973 40.1622 27.4804L39.7655 26.2103C39.7546 26.1314 39.7747 26.0513 39.8215 25.9868L40.0947 25.6166C40.1428 25.5623 40.2089 25.5271 40.2808 25.5174L41.6184 25.5304C41.7835 25.526 41.9435 25.4727 42.0783 25.3773C42.213 25.2818 42.3164 25.1485 42.3752 24.9942C42.3752 24.9942 42.4342 24.8267 42.4989 24.5701C42.5636 24.3135 42.5909 24.1382 42.5909 24.1382C42.6122 23.9731 42.5836 23.8054 42.5088 23.6566C42.434 23.5079 42.3164 23.385 42.1711 23.3037L40.9917 22.6856C40.9287 22.6374 40.8861 22.5674 40.8723 22.4894L40.8062 22.0344C40.8022 21.9623 40.8236 21.8911 40.8666 21.8331L41.8168 20.9016C42.0547 20.6688 42.1172 20.2706 41.9533 19.9579L41.5228 19.2392C41.341 18.9725 40.9478 18.8345 40.638 18.9308L39.3263 19.3319C39.2607 19.3319 39.1967 19.311 39.1438 19.2722L38.7736 18.9991C38.7197 18.9506 38.6846 18.8847 38.6744 18.8129L38.6873 17.4818C38.6844 17.3155 38.6317 17.1539 38.5362 17.0177C38.4406 16.8816 38.3065 16.7771 38.1512 16.7178C38.1512 16.7178 37.9837 16.6589 37.7271 16.5942C37.4705 16.5295 37.2951 16.5022 37.2951 16.5022C37.2578 16.4986 37.2204 16.4959 37.183 16.4943C37.0356 16.4961 36.8913 16.5366 36.7645 16.6118C36.6377 16.687 36.533 16.7942 36.4607 16.9226L35.8425 18.1021C35.7944 18.1651 35.7244 18.2076 35.6463 18.2214L35.1698 18.2897C35.1047 18.2881 35.0417 18.2666 34.9894 18.2279L34.0579 17.2777C33.9362 17.1564 33.7787 17.0775 33.6087 17.0529C33.4386 17.0283 33.2652 17.0593 33.1142 17.1411L32.3954 17.571C32.1208 17.7578 31.9879 18.1388 32.0871 18.4557L32.4838 19.7258C32.4946 19.8047 32.4746 19.8848 32.4278 19.9493L32.1553 20.3194ZM32.7447 20.7306L32.9912 20.3956C33.1839 20.1678 33.2586 19.7962 33.1695 19.5123L32.7735 18.243C32.7699 18.2229 32.7857 18.1776 32.7821 18.1769L33.4635 17.7686L33.5447 17.7808L34.4769 18.731C34.6422 18.8992 34.9146 19.0084 35.1705 19.0084C35.2197 19.0089 35.2688 19.0044 35.3171 18.9948L35.7304 18.9337C35.8855 18.9145 36.034 18.8594 36.1641 18.7728C36.2943 18.6862 36.4024 18.5705 36.4801 18.4349L37.0975 17.2561C37.1203 17.232 37.1508 17.2165 37.1837 17.2123C37.1916 17.213 37.3383 17.2375 37.5524 17.2906C37.7659 17.3445 37.9068 17.3927 37.9132 17.3956C37.9355 17.4049 37.9679 17.4516 37.9693 17.4746L37.9564 18.8058C37.9535 19.1033 38.1325 19.4375 38.3639 19.5885L38.6981 19.835C38.9202 20.0226 39.3012 20.1017 39.5815 20.0133L40.8565 19.6165C40.8867 19.6165 40.9205 19.6352 40.9162 19.6259L41.3244 20.3072C41.3323 20.3259 41.3244 20.3734 41.3122 20.3884L40.362 21.3207C40.15 21.5298 40.04 21.8921 40.0982 22.1609L40.1586 22.5742C40.1845 22.8703 40.3944 23.1858 40.6582 23.3238L41.8369 23.9412C41.861 23.9641 41.8765 23.9945 41.8807 24.0275C41.86 24.1515 41.8339 24.2745 41.8024 24.3962C41.7727 24.5179 41.7377 24.6383 41.6975 24.757C41.6881 24.7793 41.6414 24.8116 41.6184 24.8131L40.2801 24.8001C39.9847 24.8001 39.6541 24.9791 39.5046 25.2077L39.2588 25.5419C39.1619 25.6649 39.0953 25.8089 39.0644 25.9623C39.0334 26.1158 39.0389 26.2743 39.0805 26.4252L39.4765 27.6945C39.4801 27.7139 39.4643 27.7599 39.4679 27.7607L38.7865 28.1689L38.7053 28.1567L37.7731 27.2065C37.6078 27.0383 37.3354 26.9291 37.0795 26.9291C37.0303 26.9286 36.9812 26.9332 36.9329 26.9427L36.5196 27.0038C36.3645 27.023 36.216 27.0781 36.0859 27.1647C35.9557 27.2513 35.8476 27.367 35.7699 27.5026L35.1525 28.6814C35.1297 28.7055 35.0992 28.721 35.0663 28.7252C34.9423 28.7045 34.8193 28.6784 34.6976 28.6469C34.5758 28.6172 34.4554 28.5822 34.3367 28.5419C34.3145 28.5326 34.2821 28.4859 34.2807 28.4629L34.2936 27.1318C34.2965 26.8342 34.1175 26.5 33.8861 26.349L33.5519 26.1025C33.4288 26.0056 33.2847 25.9389 33.1311 25.908C32.9775 25.877 32.8188 25.8826 32.6678 25.9243L31.3928 26.321C31.3618 26.321 31.3281 26.3045 31.3331 26.3117L30.9248 25.6303C30.9169 25.6116 30.9248 25.5642 30.9371 25.5491L31.8873 24.6169C32.0993 24.4077 32.2093 24.0454 32.151 23.7766L32.0907 23.3641C32.0714 23.2089 32.0162 23.0604 31.9295 22.9302C31.8428 22.8001 31.7269 22.692 31.5911 22.6144L30.4124 21.997C30.3882 21.9742 30.3727 21.9437 30.3685 21.9108C30.3692 21.9029 30.3937 21.7562 30.4469 21.542C30.5008 21.3286 30.5489 21.1877 30.5518 21.1812C30.5612 21.1589 30.6079 21.1266 30.6309 21.1252L31.9692 21.1381C32.2646 21.1381 32.5952 20.9591 32.7447 20.7306Z" fill="black"/>
<path d="M21.75 34.1094C23.93 34.1094 25.7031 32.3362 25.7031 30.1563C25.7031 27.9763 23.93 26.2031 21.75 26.2031C19.57 26.2031 17.7969 27.9763 17.7969 30.1563C17.7969 32.3362 19.57 34.1094 21.75 34.1094ZM21.75 26.9219C23.5332 26.9219 24.9844 28.373 24.9844 30.1563C24.9844 31.9395 23.5332 33.3906 21.75 33.3906C19.9668 33.3906 18.5156 31.9395 18.5156 30.1563C18.5156 28.373 19.9668 26.9219 21.75 26.9219ZM32.1553 20.3194C32.1072 20.3738 32.0411 20.409 31.9692 20.4186L30.6316 20.4057C30.4665 20.4101 30.3065 20.4634 30.1717 20.5588C30.037 20.6543 29.9336 20.7876 29.8748 20.9419C29.8748 20.9419 29.8158 21.1094 29.7511 21.3659C29.6864 21.6225 29.6591 21.7979 29.6591 21.7979C29.6088 22.1221 29.7892 22.4807 30.0789 22.6324L31.2583 23.2505C31.3213 23.2987 31.3639 23.3687 31.3777 23.4467L31.4445 23.9031C31.4485 23.9752 31.4271 24.0464 31.3841 24.1044L30.4339 25.0359C30.196 25.2688 30.1335 25.6669 30.2974 25.9796L30.7279 26.6984C30.9097 26.9657 31.3036 27.1023 31.6127 27.006L32.9237 26.6049C32.9948 26.6049 33.066 26.6322 33.1062 26.6646L33.4764 26.9377C33.5303 26.9862 33.5654 27.0521 33.5756 27.1239L33.5627 28.455C33.5598 28.7827 33.7898 29.1112 34.0988 29.219C34.0988 29.219 34.2663 29.2779 34.5229 29.3426C34.7795 29.4073 34.9549 29.4346 34.9549 29.4346C34.9736 29.4375 35.0483 29.4433 35.067 29.4433C35.2144 29.4414 35.3587 29.4009 35.4855 29.3257C35.6123 29.2505 35.717 29.1433 35.7893 29.0149L36.4075 27.8354C36.4556 27.7725 36.5256 27.7299 36.6037 27.7161L37.0802 27.6471C37.1521 27.6471 37.2369 27.6845 37.2606 27.7089L38.1921 28.6591C38.4185 28.8905 38.8002 28.9732 39.1358 28.7957L39.8539 28.3651C40.1284 28.1783 40.2614 27.7973 40.1622 27.4804L39.7655 26.2103C39.7546 26.1314 39.7747 26.0513 39.8215 25.9868L40.0947 25.6166C40.1428 25.5623 40.2089 25.5271 40.2808 25.5174L41.6184 25.5304C41.7835 25.526 41.9435 25.4727 42.0783 25.3773C42.213 25.2818 42.3164 25.1485 42.3752 24.9942C42.3752 24.9942 42.4342 24.8267 42.4989 24.5701C42.5636 24.3135 42.5909 24.1382 42.5909 24.1382C42.6122 23.9731 42.5836 23.8054 42.5088 23.6566C42.434 23.5079 42.3164 23.385 42.1711 23.3037L40.9917 22.6856C40.9287 22.6374 40.8861 22.5674 40.8723 22.4894L40.8062 22.0344C40.8022 21.9623 40.8236 21.8911 40.8666 21.8331L41.8168 20.9016C42.0547 20.6688 42.1172 20.2706 41.9533 19.9579L41.5228 19.2392C41.341 18.9725 40.9478 18.8345 40.638 18.9308L39.3263 19.3319C39.2607 19.3319 39.1967 19.311 39.1438 19.2722L38.7736 18.9991C38.7197 18.9506 38.6846 18.8847 38.6744 18.8129L38.6873 17.4818C38.6844 17.3155 38.6317 17.1539 38.5362 17.0177C38.4406 16.8816 38.3065 16.7771 38.1512 16.7178C38.1512 16.7178 37.9837 16.6589 37.7271 16.5942C37.4705 16.5295 37.2951 16.5022 37.2951 16.5022C37.2578 16.4986 37.2204 16.4959 37.183 16.4943C37.0356 16.4961 36.8913 16.5366 36.7645 16.6118C36.6377 16.687 36.533 16.7942 36.4607 16.9226L35.8425 18.1021C35.7944 18.1651 35.7244 18.2076 35.6463 18.2214L35.1698 18.2897C35.1047 18.2881 35.0417 18.2666 34.9894 18.2279L34.0579 17.2777C33.9362 17.1564 33.7787 17.0775 33.6087 17.0529C33.4386 17.0283 33.2652 17.0593 33.1142 17.1411L32.3954 17.571C32.1208 17.7578 31.9879 18.1388 32.0871 18.4557L32.4838 19.7258C32.4946 19.8047 32.4746 19.8848 32.4278 19.9493L32.1553 20.3194ZM32.7447 20.7306L32.9912 20.3956C33.1839 20.1678 33.2586 19.7962 33.1695 19.5123L32.7735 18.243C32.7699 18.2229 32.7857 18.1776 32.7821 18.1769L33.4635 17.7686L33.5447 17.7808L34.4769 18.731C34.6422 18.8992 34.9146 19.0084 35.1705 19.0084C35.2197 19.0089 35.2688 19.0044 35.3171 18.9948L35.7304 18.9337C35.8855 18.9145 36.034 18.8594 36.1641 18.7728C36.2943 18.6862 36.4024 18.5705 36.4801 18.4349L37.0975 17.2561C37.1203 17.232 37.1508 17.2165 37.1837 17.2123C37.1916 17.213 37.3383 17.2375 37.5524 17.2906C37.7659 17.3445 37.9068 17.3927 37.9132 17.3956C37.9355 17.4049 37.9679 17.4516 37.9693 17.4746L37.9564 18.8058C37.9535 19.1033 38.1325 19.4375 38.3639 19.5885L38.6981 19.835C38.9202 20.0226 39.3012 20.1017 39.5815 20.0133L40.8565 19.6165C40.8867 19.6165 40.9205 19.6352 40.9162 19.6259L41.3244 20.3072C41.3323 20.3259 41.3244 20.3734 41.3122 20.3884L40.362 21.3207C40.15 21.5298 40.04 21.8921 40.0982 22.1609L40.1586 22.5742C40.1845 22.8703 40.3944 23.1858 40.6582 23.3238L41.8369 23.9412C41.861 23.9641 41.8765 23.9945 41.8807 24.0275C41.86 24.1515 41.8339 24.2745 41.8024 24.3962C41.7727 24.5179 41.7377 24.6383 41.6975 24.757C41.6881 24.7793 41.6414 24.8116 41.6184 24.8131L40.2801 24.8001C39.9847 24.8001 39.6541 24.9791 39.5046 25.2077L39.2588 25.5419C39.1619 25.6649 39.0953 25.8089 39.0644 25.9623C39.0334 26.1158 39.0389 26.2743 39.0805 26.4252L39.4765 27.6945C39.4801 27.7139 39.4643 27.7599 39.4679 27.7607L38.7865 28.1689L38.7053 28.1567L37.7731 27.2065C37.6078 27.0383 37.3354 26.9291 37.0795 26.9291C37.0303 26.9286 36.9812 26.9332 36.9329 26.9427L36.5196 27.0038C36.3645 27.023 36.216 27.0781 36.0859 27.1647C35.9557 27.2513 35.8476 27.367 35.7699 27.5026L35.1525 28.6814C35.1297 28.7055 35.0992 28.721 35.0663 28.7252C34.9423 28.7045 34.8193 28.6784 34.6976 28.6469C34.5758 28.6172 34.4554 28.5822 34.3367 28.5419C34.3145 28.5326 34.2821 28.4859 34.2807 28.4629L34.2936 27.1318C34.2965 26.8342 34.1175 26.5 33.8861 26.349L33.5519 26.1025C33.4288 26.0056 33.2847 25.9389 33.1311 25.908C32.9775 25.877 32.8188 25.8826 32.6678 25.9243L31.3928 26.321C31.3618 26.321 31.3281 26.3045 31.3331 26.3117L30.9248 25.6303C30.9169 25.6116 30.9248 25.5642 30.9371 25.5491L31.8873 24.6169C32.0993 24.4077 32.2093 24.0454 32.151 23.7766L32.0907 23.3641C32.0714 23.2089 32.0162 23.0604 31.9295 22.9302C31.8428 22.8001 31.7269 22.692 31.5911 22.6144L30.4124 21.997C30.3882 21.9742 30.3727 21.9437 30.3685 21.9108C30.3692 21.9029 30.3937 21.7562 30.4469 21.542C30.5008 21.3286 30.5489 21.1877 30.5518 21.1812C30.5612 21.1589 30.6079 21.1266 30.6309 21.1252L31.9692 21.1381C32.2646 21.1381 32.5952 20.9591 32.7447 20.7306Z" stroke="black" stroke-width="0.5" mask="url(#path-3-outside-2_236_578)"/>
<path d="M36.125 20.6875C37.3828 20.6875 38.4062 21.7109 38.4062 22.9688C38.4062 24.2266 37.3828 25.25 36.125 25.25C34.8672 25.25 33.8438 24.2266 33.8438 22.9688C33.8438 21.7109 34.8672 20.6875 36.125 20.6875ZM36.125 21.6562C35.4013 21.6562 34.8125 22.245 34.8125 22.9688C34.8125 23.6925 35.4013 24.2812 36.125 24.2812C36.8487 24.2812 37.4375 23.6925 37.4375 22.9688C37.4375 22.245 36.8487 21.6562 36.125 21.6562Z" fill="black" stroke="black" stroke-width="0.25"/>
</svg>
