<svg width="56" height="56" viewBox="0 0 56 56" fill="none" xmlns="http://www.w3.org/2000/svg">
<circle cx="28" cy="28" r="27.5" fill="#DFDFF0" stroke="#D5D5EB"/>
<g clip-path="url(#clip0_236_585)">
<path d="M39 31.2905V33.75H37.5625V31.897L36.3384 30.6616L36.3721 30.6279C36.0726 30.7926 35.7394 30.875 35.3726 30.875C35.0431 30.875 34.7399 30.8076 34.4629 30.6729L33.25 31.897V33.75H31.8125V31.2905L33.4409 29.6733L33.4072 29.5947L30.5884 23.2832L26.0063 28.0112C26.0213 28.131 26.0326 28.2471 26.04 28.3594C26.0475 28.4717 26.055 28.5915 26.0625 28.7188V38.0625H27.5V39.5H16V38.0625H17.4375V28.7188C17.4375 28.1497 17.5423 27.6144 17.752 27.1128C17.9616 26.6112 18.2461 26.1657 18.6055 25.7764C18.9648 25.387 19.3916 25.0726 19.8857 24.833C20.3799 24.5934 20.9115 24.4549 21.4805 24.4175L28.3086 17.376C28.5781 17.0915 28.8926 16.8743 29.252 16.7246C29.6113 16.5749 29.9857 16.5 30.375 16.5C30.637 16.5 30.8991 16.5374 31.1611 16.6123C31.4232 16.6872 31.674 16.7995 31.9136 16.9492C32.1532 17.099 32.3665 17.2712 32.5537 17.4658C32.7409 17.6605 32.8906 17.8851 33.0029 18.1396L37.3154 27.7754C37.3828 27.9251 37.4315 28.0786 37.4614 28.2358C37.4914 28.3931 37.5063 28.5503 37.5063 28.7075C37.5063 28.8872 37.4876 29.0632 37.4502 29.2354C37.4128 29.4076 37.3491 29.576 37.2593 29.7407L37.3491 29.6509L39 31.2905ZM24.625 38.0625V28.7188C24.625 28.3219 24.5501 27.9513 24.4004 27.6069C24.2507 27.2625 24.0448 26.9556 23.7827 26.686C23.5207 26.4165 23.2174 26.2106 22.873 26.0684C22.5286 25.9261 22.1543 25.8512 21.75 25.8438C21.3532 25.8438 20.9826 25.9186 20.6382 26.0684C20.2938 26.2181 19.9868 26.424 19.7173 26.686C19.4478 26.9481 19.2419 27.2513 19.0996 27.5957C18.9574 27.9401 18.8825 28.3145 18.875 28.7188V38.0625H24.625ZM23.2324 24.6646C23.6966 24.8368 24.1196 25.0801 24.5015 25.3945C24.8833 25.709 25.2015 26.0796 25.4561 26.5063L31.4082 20.3745C31.6777 20.09 31.8125 19.7568 31.8125 19.375C31.8125 19.1729 31.7751 18.9857 31.7002 18.8135C31.6253 18.6413 31.5243 18.4915 31.397 18.3643C31.2697 18.237 31.1162 18.1322 30.9365 18.0498C30.7568 17.9674 30.5697 17.93 30.375 17.9375C29.9632 17.9375 29.6188 18.0835 29.3418 18.3755L23.2324 24.6646ZM32.7222 21.0259C32.5874 21.243 32.4227 21.4414 32.228 21.6211C32.0334 21.8008 31.8462 21.9842 31.6665 22.1714L33.8789 27.124L35.1929 26.5625L32.7222 21.0259ZM35.3726 29.4375C35.5897 29.4375 35.7619 29.3664 35.8892 29.2241C36.0164 29.0819 36.0801 28.9097 36.0801 28.7075C36.0801 28.5578 36.0464 28.4155 35.979 28.2808C35.9116 28.146 35.8442 28.0112 35.7769 27.8765L34.4629 28.438C34.5078 28.5503 34.5527 28.6663 34.5977 28.7861C34.6426 28.9059 34.6987 29.0145 34.7661 29.1118C34.8335 29.2091 34.9121 29.2878 35.002 29.3477C35.0918 29.4076 35.2153 29.4375 35.3726 29.4375ZM21.75 28C21.9521 28 22.1393 28.0374 22.3115 28.1123C22.4837 28.1872 22.6335 28.2882 22.7607 28.4155C22.888 28.5428 22.9928 28.6963 23.0752 28.876C23.1576 29.0557 23.195 29.2428 23.1875 29.4375C23.1875 29.6396 23.1501 29.8268 23.0752 29.999C23.0003 30.1712 22.8993 30.321 22.772 30.4482C22.6447 30.5755 22.4912 30.6803 22.3115 30.7627C22.1318 30.8451 21.9447 30.8825 21.75 30.875C21.5479 30.875 21.3607 30.8376 21.1885 30.7627C21.0163 30.6878 20.8665 30.5868 20.7393 30.4595C20.612 30.3322 20.5072 30.1787 20.4248 29.999C20.3424 29.8193 20.305 29.6322 20.3125 29.4375C20.3125 29.2354 20.3499 29.0482 20.4248 28.876C20.4997 28.7038 20.6007 28.554 20.728 28.4268C20.8553 28.2995 21.0088 28.1947 21.1885 28.1123C21.3682 28.0299 21.5553 27.9925 21.75 28Z" fill="black"/>
</g>
<defs>
<clipPath id="clip0_236_585">
<rect width="23" height="23" fill="white" transform="translate(16 16.5)"/>
</clipPath>
</defs>
</svg>
