<svg width="14" height="14" viewBox="0 0 14 14" fill="none" xmlns="http://www.w3.org/2000/svg">
<path d="M1 11.5C0.787503 11.5 0.609503 11.428 0.466003 11.284C0.322503 11.14 0.250503 10.962 0.250003 10.75C0.249503 10.538 0.321503 10.36 0.466003 10.216C0.610503 10.072 0.788503 10 1 10H13C13.2125 10 13.3908 10.072 13.5348 10.216C13.6788 10.36 13.7505 10.538 13.75 10.75C13.7495 10.962 13.6775 11.1402 13.534 11.2847C13.3905 11.4292 13.2125 11.501 13 11.5H1ZM1 7.75C0.787503 7.75 0.609503 7.678 0.466003 7.534C0.322503 7.39 0.250503 7.212 0.250003 7C0.249503 6.788 0.321503 6.61 0.466003 6.466C0.610503 6.322 0.788503 6.25 1 6.25H13C13.2125 6.25 13.3908 6.322 13.5348 6.466C13.6788 6.61 13.7505 6.788 13.75 7C13.7495 7.212 13.6775 7.39025 13.534 7.53475C13.3905 7.67925 13.2125 7.751 13 7.75H1ZM1 4C0.787503 4 0.609503 3.928 0.466003 3.784C0.322503 3.64 0.250503 3.462 0.250003 3.25C0.249503 3.038 0.321503 2.86 0.466003 2.716C0.610503 2.572 0.788503 2.5 1 2.5H13C13.2125 2.5 13.3908 2.572 13.5348 2.716C13.6788 2.86 13.7505 3.038 13.75 3.25C13.7495 3.462 13.6775 3.64025 13.534 3.78475C13.3905 3.92925 13.2125 4.001 13 4H1Z" fill="black"/>
</svg>
