<svg width="56" height="56" viewBox="0 0 56 56" fill="none" xmlns="http://www.w3.org/2000/svg">
<circle cx="28" cy="28" r="27.5" fill="#DFDFF0" stroke="#D5D5EB"/>
<g clip-path="url(#clip0_236_594)">
<path d="M17.9159 25.7518L20.6117 28.4562L26.6799 22.3708L23.9831 19.6654L17.915 25.7508L17.9159 25.7518ZM22.1719 33.5411L24.194 31.5123C24.2824 31.4234 24.3875 31.3529 24.5033 31.3047C24.6191 31.2566 24.7432 31.2318 24.8686 31.2318C24.994 31.2318 25.1182 31.2566 25.234 31.3047C25.3497 31.3529 25.4549 31.4234 25.5433 31.5123C25.7221 31.6919 25.8225 31.935 25.8225 32.1884C25.8225 32.4418 25.7221 32.6849 25.5433 32.8645L23.5212 34.8933C23.7 35.0729 23.8004 35.316 23.8004 35.5694C23.8004 35.8228 23.7 36.0659 23.5212 36.2455L22.1709 37.5977C22.0825 37.6865 21.9774 37.7569 21.8618 37.805C21.7461 37.853 21.622 37.8778 21.4967 37.8778C21.3715 37.8778 21.2474 37.853 21.1317 37.805C21.016 37.7569 20.911 37.6865 20.8226 37.5977L19.4742 36.2465C19.2951 36.0669 19.1945 35.8236 19.1945 35.5699C19.1945 35.3163 19.2951 35.073 19.4742 34.8933L20.8226 33.5411C20.911 33.4524 21.016 33.3819 21.1317 33.3339C21.2474 33.2858 21.3715 33.2611 21.4967 33.2611C21.622 33.2611 21.7461 33.2858 21.8618 33.3339C21.9774 33.3819 22.0835 33.4524 22.1719 33.5411ZM30.9368 27.4557L37.004 21.3703L35.6556 20.0171L29.5884 26.1025C28.8438 25.355 28.7144 24.275 29.299 23.6875L34.5967 18.3745C35.1813 17.788 36.2594 17.9174 37.004 18.6649L38.3524 20.0162C39.098 20.7637 39.2273 21.8456 38.6418 22.4312L33.3441 27.7451C32.7596 28.3316 31.6814 28.2022 30.9368 27.4547V27.4557ZM30.0513 31.1606L25.3315 26.4284L24.6568 27.105L29.3766 31.8382L30.0513 31.1606ZM31.3997 32.5138L30.725 33.1894L32.4107 34.8799C32.5966 35.0668 32.8995 35.0668 33.0844 34.8799C33.1737 34.7901 33.2238 34.6687 33.2238 34.5421C33.2238 34.4155 33.1737 34.2941 33.0844 34.2043L31.3997 32.5138ZM17.9734 22.988C17.8458 22.7202 17.804 22.4196 17.854 22.1272C17.9039 21.8349 18.043 21.5651 18.2523 21.355L19.6007 20.0037C19.8095 19.7939 20.0784 19.6542 20.37 19.6039C20.6617 19.5536 20.9619 19.5952 21.2289 19.7229L22.6348 18.3132C22.8116 18.1357 23.0217 17.9949 23.2531 17.8987C23.4845 17.8026 23.7326 17.7532 23.9831 17.7532C24.2337 17.7532 24.4818 17.8026 24.7132 17.8987C24.9446 17.9949 25.1547 18.1357 25.3315 18.3132L28.0283 21.0186C28.3858 21.3778 28.5866 21.864 28.5866 22.3708C28.5866 22.8776 28.3858 23.3638 28.0283 23.723L26.6799 25.0752L34.4328 32.8511C34.8799 33.3001 35.1309 33.908 35.1309 34.5416C35.1309 35.1753 34.8799 35.7831 34.4328 36.2321C34.2119 36.4542 33.9494 36.6305 33.6601 36.7507C33.3709 36.871 33.0608 36.9329 32.7476 36.9329C32.4344 36.9329 32.1242 36.871 31.835 36.7507C31.5458 36.6305 31.2832 36.4542 31.0623 36.2321L23.3094 28.4562L21.9601 29.8084C21.2155 30.5559 20.008 30.5559 19.2633 29.8084L16.5666 27.104C16.2087 26.7448 16.0078 26.2584 16.0078 25.7513C16.0078 25.2442 16.2087 24.7579 16.5666 24.3986L17.9725 22.9899L17.9734 22.988Z" fill="black"/>
</g>
<defs>
<clipPath id="clip0_236_594">
<rect width="23" height="23" fill="white" transform="translate(16 16.5)"/>
</clipPath>
</defs>
</svg>
