<svg width="26" height="26" viewBox="0 0 26 26" fill="none" xmlns="http://www.w3.org/2000/svg">
<path d="M10.8346 16.2501L16.4571 13.0001L10.8346 9.75008V16.2501ZM23.358 7.76758C23.4988 8.27675 23.5963 8.95925 23.6613 9.82591C23.7371 10.6926 23.7696 11.4401 23.7696 12.0901L23.8346 13.0001C23.8346 15.3726 23.6613 17.1167 23.358 18.2326C23.0871 19.2076 22.4588 19.8359 21.4838 20.1067C20.9746 20.2476 20.043 20.3451 18.613 20.4101C17.2046 20.4859 15.9155 20.5184 14.7238 20.5184L13.0013 20.5834C8.46213 20.5834 5.63464 20.4101 4.5188 20.1067C3.5438 19.8359 2.91547 19.2076 2.64464 18.2326C2.5038 17.7234 2.4063 17.0409 2.3413 16.1742C2.26547 15.3076 2.23297 14.5601 2.23297 13.9101L2.16797 13.0001C2.16797 10.6276 2.3413 8.88341 2.64464 7.76758C2.91547 6.79258 3.5438 6.16425 4.5188 5.89341C5.02797 5.75258 5.95964 5.65508 7.38964 5.59008C8.79797 5.51425 10.0871 5.48175 11.2788 5.48175L13.0013 5.41675C17.5405 5.41675 20.368 5.59008 21.4838 5.89341C22.4588 6.16425 23.0871 6.79258 23.358 7.76758Z" fill="#2F2483"/>
</svg>
